<svg xmlns="http://www.w3.org/2000/svg" width="100%" height="100%" viewBox="0 0 121.81 94.46"><defs><style>.a{opacity:0.91;}.b{fill:#250058;}</style></defs><title>Roo_Logos</title><g class="a"><path class="b" d="M16.47,32.14a2.1,2.1,0,0,1-.6.24,2.41,2.41,0,0,0-.06.66v.72a17.83,17.83,0,0,1-.54,2.58v.6a3,3,0,0,1-.3,1.44L14.73,41l-.36,1.5a1.08,1.08,0,0,0,0,.66,16.15,16.15,0,0,1,.18,2.19,9.36,9.36,0,0,1-.15,2.73l-.36.54a2.64,2.64,0,0,1-1.56.18,3.45,3.45,0,0,0-1.2-.24,8.65,8.65,0,0,1-.93-.09l-.6-.24a3.19,3.19,0,0,1-.66-.33l-.45-.36q-.78-.54-.78-2.34a1.25,1.25,0,0,1,.06-.84q-.36-.18-.24-1a2.69,2.69,0,0,0,.18-1.14A3.66,3.66,0,0,1,8,41v-1a11.85,11.85,0,0,1,.42-2.22A1.86,1.86,0,0,1,8.61,37q-.12-.12.3-1a4.4,4.4,0,0,1,.3-1.74q-.18-.18-.06-1.11a8.12,8.12,0,0,1,.3-1.47,3,3,0,0,1,.18-1.38,9.47,9.47,0,0,1-.18-1.14l.12-.72a7.43,7.43,0,0,1,.54-2.22q.48-3.42.48-3.72a27.3,27.3,0,0,0,.84-4.32q.18-.06.36-1.17a2.4,2.4,0,0,0-.12-1.59,17.57,17.57,0,0,0-4.5,2.4q-1.2,1-1.62.78a1.51,1.51,0,0,1-.84-1.38l-.24-1a4.38,4.38,0,0,1-.33-.69,2.15,2.15,0,0,1-.24-.93,3.12,3.12,0,0,0-.06-.81,1,1,0,0,1,0-.69,3.49,3.49,0,0,1,1.44-1.5l1.44-1,1-.6a23.07,23.07,0,0,0,2.28-1.26q.12-.24.9-.42t3.48-1.08q1.8-.18,2.1-.18a6,6,0,0,1,3.24.36,4.23,4.23,0,0,0,1.05.21,1.08,1.08,0,0,1,.42,0,2.05,2.05,0,0,0,.39.06q0,.12.54.12l1.14.42a1.61,1.61,0,0,1,.78.3,1.71,1.71,0,0,1,1,.27l1.86.93q1.23.6,1.23,1a1.84,1.84,0,0,1,.78.66l.72.72,1.14,1.5a2.94,2.94,0,0,1,.54.6,11.92,11.92,0,0,1,.66,1.2q.06.18.12.33t.48,1.05a5.09,5.09,0,0,1,.66,2.94s-.2.66-.6,1.86a11,11,0,0,1-3.3,5l-1.26.93q-.78.57-1.26,1a25.43,25.43,0,0,0-2.67,1.74q-.39.36-.69.6l-.66.3.12.36q0-.24.33.21a5.38,5.38,0,0,1,.45.69q0,.3.6.72.12-.06.3.12A1.56,1.56,0,0,1,25,34.48a5.44,5.44,0,0,1,1.26,1.44,5,5,0,0,1,1.44,1.68,5,5,0,0,0,.66.66,5.26,5.26,0,0,0,1,1l1,.81.54.45a17.93,17.93,0,0,1,1.5,1.26l.72.48q2.22,2.16,2.34,2.34a3,3,0,0,1-.84,1.26q-.06,1-2.76,1.62a5.86,5.86,0,0,1-2.46-.81,8.83,8.83,0,0,1-2.4-1.71,18.81,18.81,0,0,1-3.48-3,17.54,17.54,0,0,1-3.54-4.74,3.37,3.37,0,0,1-.57-.6,4,4,0,0,0-.63-.66l-.78-1.5-1.08-1.5ZM17.61,20.5A17.9,17.9,0,0,0,17.19,24a4.27,4.27,0,0,1-.27,1.14,3.85,3.85,0,0,0-.15,1.38q0,1.08.66,1.26a4.42,4.42,0,0,0,1.92-.72L20.61,26a32.55,32.55,0,0,1,3.06-2l1.5-1.44.6-.78.24-.54a2.14,2.14,0,0,0,.3-1.62l-.12-1a18.24,18.24,0,0,0-.57-2.19,3.77,3.77,0,0,0-.45-.72,4.33,4.33,0,0,0-.66-.69,1.92,1.92,0,0,1-.42-.42l-1.86-.9a2.66,2.66,0,0,0-.72-.18,5.5,5.5,0,0,0-2.88-.12l-.36,1.92a4.42,4.42,0,0,1-.33,1.26,1.93,1.93,0,0,0-.15,1.32,2.58,2.58,0,0,0-.06.69,10,10,0,0,1-.12,1.35Z"/><path class="b" d="M36.69,34.42l.24-3.06a14.45,14.45,0,0,1,2.52-7.08,7.23,7.23,0,0,1,5.76-2.52h.36q3.48,0,5,1.5a9,9,0,0,1,2.49,2.88,18.21,18.21,0,0,1,1,2.28,8.14,8.14,0,0,1,.3,2.1q.12,2.58-1,2.94.84,5.7-1,9.06a17.31,17.31,0,0,1-1.74,3,3.89,3.89,0,0,1-3,1.2,25.48,25.48,0,0,1-3.75-.24A8.85,8.85,0,0,1,40.41,45a7,7,0,0,1-2.7-4.23A27,27,0,0,1,36.69,34.42Zm11-5.64q-.42-2.4-2.34-2.22A2.38,2.38,0,0,0,43.47,28a10.78,10.78,0,0,0-.93,5.43,30.84,30.84,0,0,0,.48,4.8,6.36,6.36,0,0,0,1.17,2.55,1.44,1.44,0,0,0,1.44.78q1.68,0,2.46-2.82l.48-1.44a.45.45,0,0,0,.12-.6,10.34,10.34,0,0,0,.66-3.54,1.79,1.79,0,0,1-.72-.78A5.26,5.26,0,0,1,48.27,31a1.45,1.45,0,0,1-.48-1.14A8.25,8.25,0,0,0,47.67,28.78Z"/><path class="b" d="M64.08,20.62a1.63,1.63,0,0,0,.78-.15,6.51,6.51,0,0,1,1-.39,12.23,12.23,0,0,1,3.57,0,10,10,0,0,1,3.48,1.56,8.25,8.25,0,0,1,3.18,2.64A26.51,26.51,0,0,1,78,32a25.28,25.28,0,0,1-1,8.34,31,31,0,0,1-2,4.44,5.59,5.59,0,0,1-1,2,1.56,1.56,0,0,0-.48.06s-.11.17-.33.39a1.26,1.26,0,0,1-.93.33,2.45,2.45,0,0,0-.93.33.93.93,0,0,1-.63.15l-1.5.12H67.65a6.55,6.55,0,0,1-2.58-.42l-1.8-1.2-.6-.72a.18.18,0,0,1-.21-.15,1.07,1.07,0,0,0-.09-.27,1.21,1.21,0,0,1-.54-1,3.39,3.39,0,0,1-.66-1.44.83.83,0,0,0-.18-.6,9.81,9.81,0,0,0-.54-2.64L60.33,39v-.66a8.14,8.14,0,0,0-.48-2.1q.12-.12,0-.66a18.34,18.34,0,0,1,.06-1.86l-.18-.78a1.21,1.21,0,0,0,.15-.66,2.57,2.57,0,0,1,.15-.9v-.42l.24-2.1a1.5,1.5,0,0,1,.12-.66v-.42q.12,0,.18-.6l.3-.48.06-.48a1.13,1.13,0,0,0-.06-.36l.3-.9a2.49,2.49,0,0,1,.42-.72,1.88,1.88,0,0,1,.42-.9,1.32,1.32,0,0,1,.3-.72A2.49,2.49,0,0,1,63,21.22,1.67,1.67,0,0,1,64.08,20.62ZM72.57,32l-.3-1.56a1.22,1.22,0,0,0-.09-.42,6.13,6.13,0,0,1-.21-.9,6.89,6.89,0,0,1-.66-.54l-.3-.48-.18-.54A.64.64,0,0,1,70.5,27a.84.84,0,0,0-.24-.54,2,2,0,0,1-.33-.42.65.65,0,0,0-.24-.27,1.61,1.61,0,0,0-1.44-.06,1.53,1.53,0,0,0-1.08.84,10.25,10.25,0,0,0-1,2.94,8.2,8.2,0,0,0-.48,4.08,23.55,23.55,0,0,0,.48,5.28v.66a8.46,8.46,0,0,1,1,1.92q.6.78.81,1.11a3.32,3.32,0,0,0,.27.39,3.31,3.31,0,0,1,.72.6,7,7,0,0,0,.66-.36v-.42a3.15,3.15,0,0,1,.54-.36s.1-.14.42-.42l.3-.3q.9-1.92.9-2a2.63,2.63,0,0,0-.06-.39.59.59,0,0,1,.3-.84l.72-2.1V36a.44.44,0,0,0-.12-.54V35a1.07,1.07,0,0,0,.12-.48A4.76,4.76,0,0,0,73,33.4,1.21,1.21,0,0,1,73,33a.79.79,0,0,1,.18-.39Q73.35,32.32,72.57,32Z"/></g><path class="b" d="M25.23,74.6a34.11,34.11,0,0,0,.4-3.87L26.42,64a6.13,6.13,0,0,0,.23-1.27,7,7,0,0,1,.08-1.36,12.66,12.66,0,0,0,0-2.43L26,58.46,24.85,58a5.91,5.91,0,0,1-1.56-1.06c-.21-.11-.28-.42-.23-.92a1.57,1.57,0,0,1,.84-1.22,7.33,7.33,0,0,0,1.23-.48,2.92,2.92,0,0,0,1.17-.61,3.67,3.67,0,0,0,1.05-.59L29.94,52a2.78,2.78,0,0,0,1-.35,4.47,4.47,0,0,1,1.39-.43l2.33-.3a6.11,6.11,0,0,1,3.13,0,4,4,0,0,1,1.69.27,5.36,5.36,0,0,1,1.64.34,4.12,4.12,0,0,1,1.65.57,1.51,1.51,0,0,1,.8.2,7.62,7.62,0,0,0,1.54.82l1.51,1.19a9.76,9.76,0,0,1,2.35,2.52c.8.76.84,2,.13,3.6a4.5,4.5,0,0,1-.42,1.16,21.24,21.24,0,0,1-6.22,7.59L40.67,70l-2.9,1.89c.39.54,1.18,1.56,2.38,3.06l5.12,5.92L46,82l1.65,1.77a3,3,0,0,0,1.07,1l1,1a2.59,2.59,0,0,1,1.18,2.46,1.56,1.56,0,0,1-1.64,1.46l-1.45-.1-2.92-.75-1-.91a6.83,6.83,0,0,1-2.08-1.3c-.49-.48-1.17-1.09-2.05-1.85a16.33,16.33,0,0,1-3.09-2.78,10.17,10.17,0,0,0-.41-.94,5.45,5.45,0,0,1-1.4-2.63,2.26,2.26,0,0,1-.19-.23l-.42-.55a3.56,3.56,0,0,1-.42-.67,7.4,7.4,0,0,0-1.41-2.75l-.24,0a3.5,3.5,0,0,1-.18,1l.06,1.2-.3,3.5-.61,4.35a4.85,4.85,0,0,1-.11.79,2.58,2.58,0,0,0-.09.7,2.71,2.71,0,0,1,.07.65,3.3,3.3,0,0,1-.07.94,6.58,6.58,0,0,1-.25,1.57,2.21,2.21,0,0,1-.89,1.46,4,4,0,0,1-2.3.15,4.87,4.87,0,0,1-1.71-1.65c-.33-.1-.74-.74-1.24-1.92,0-.72.06-1.16.05-1.32a4.63,4.63,0,0,0-.1-.66c0-.72,0-1.32,0-1.8l0-.42a1.21,1.21,0,0,1,0-.34q0-.21.12-.66a3.77,3.77,0,0,1,.17-.76,5.88,5.88,0,0,0,0-1.39,3.88,3.88,0,0,1,.33-1.76C25.2,77.33,25.2,76.24,25.23,74.6Zm8-13.09a66,66,0,0,1-.49,6.63l-.14.85a5.82,5.82,0,0,0,.92-.89A23.21,23.21,0,0,1,37,65.45l.87-.7,1.81-.88,2-1.36c-.09-.08,0-.28.26-.62a10.73,10.73,0,0,0,1.26-3.49,2.82,2.82,0,0,0-.27-1.22c-.15-.25-.65-.39-1.5-.43a2.85,2.85,0,0,0-1.15-.3,9.72,9.72,0,0,0-4,.63l-.48,0-.89.28-1,.06-.21,1.63c0,.08-.08.48-.24,1.21A3.77,3.77,0,0,1,33.2,61.51Z"/><path class="b" d="M54.94,70.4a1.84,1.84,0,0,1,.31-.91l-.08-.36a9.44,9.44,0,0,1,.25-1q0-.12.18,0a.36.36,0,0,1,0-.37,9,9,0,0,1,.5-1.29,9.52,9.52,0,0,0,.41-.92,2,2,0,0,1,1.07-1.38c0-.31.53-.56,1.64-.74a4.79,4.79,0,0,1,3.1-.4c.39-.26,1-.2,1.81.2a9.78,9.78,0,0,1,2,1,7.11,7.11,0,0,1,1.57,1.24,1.8,1.8,0,0,1,1.14,1.14,18.81,18.81,0,0,1,2,7l-.08.67a2.11,2.11,0,0,1-.1,1.06,1,1,0,0,0-.11.63c.08,0,.09.22,0,.54s-.24,1.52-.75,4l-.86,2c0,.09-.09.23-.27.44l0,.36a1.2,1.2,0,0,1-.28.49,7.27,7.27,0,0,1-1.1,1.86A16.79,16.79,0,0,1,65.89,88l-.45.68-.72,0c-.11.2-.21.31-.31.31a4.42,4.42,0,0,1-.89-.19l.48-.08a1.49,1.49,0,0,1-.75,0,1.24,1.24,0,0,0-.52-.09c-.78-.36-1.32-.47-1.64-.33a13.15,13.15,0,0,1-1.82-.39l-1.69-.21-1.35-.41a5.33,5.33,0,0,1-1-.67A1.45,1.45,0,0,1,55,86l-.43-1.18a3,3,0,0,0-.15-.59l-.08-1.56a5.59,5.59,0,0,0,.06-1.14,3.11,3.11,0,0,1-.06-1.26l0-.66c0-.12,0-.34,0-.66a5.21,5.21,0,0,1,0-1.32,17,17,0,0,0,0-1.87,14.68,14.68,0,0,1,.13-2.17A5.21,5.21,0,0,0,54.6,72,2.92,2.92,0,0,1,54.94,70.4Zm4.46,6.2a29.1,29.1,0,0,0-.09,3.91,8.7,8.7,0,0,0,.37,2.5,1.22,1.22,0,0,0,.28.71,1.54,1.54,0,0,0,.84,0c.54-.27.81-.55.79-.83a11.63,11.63,0,0,0,1.87-2.32,2.69,2.69,0,0,1,.32-.68,1.46,1.46,0,0,0,.26-.79,2.46,2.46,0,0,0,.34-.44,2.34,2.34,0,0,1,.18-1q-.25-.41,0-.63c.17-.15.24-.56.21-1.24l.14-1.93a1.52,1.52,0,0,1,0-.55,2,2,0,0,1,0-.75,8.38,8.38,0,0,0-.06-1.65,2.34,2.34,0,0,0-.5-1.47L64.24,69c-.1-.28-.43-.46-1-.55l-.5-.22c.14.24,0,.56-.31,1A21.59,21.59,0,0,0,59.4,76.6Z"/><path class="b" d="M75.92,74.11,76,71a14.45,14.45,0,0,1,2.14-7.2A7.24,7.24,0,0,1,83.77,61l.35,0c2.32-.12,4,.29,5.12,1.23A9,9,0,0,1,91.87,65,16.84,16.84,0,0,1,93,67.21a8.49,8.49,0,0,1,.41,2.08c.17,1.72-.12,2.71-.86,3q1.13,5.66-.55,9.1a17.44,17.44,0,0,1-1.58,3.09,3.87,3.87,0,0,1-2.94,1.35,25.38,25.38,0,0,1-3.75,0,8.68,8.68,0,0,1-3.59-1.35,7,7,0,0,1-2.92-4.08A27.34,27.34,0,0,1,75.92,74.11Zm10.67-6.2c-.37-1.58-1.18-2.28-2.45-2.1a2.39,2.39,0,0,0-1.79,1.54,10.79,10.79,0,0,0-.64,5.47,30.36,30.36,0,0,0,.73,4.77,6.26,6.26,0,0,0,1.3,2.48,1.44,1.44,0,0,0,1.48.71c1.12-.06,1.89-1,2.31-3l.4-1.46a.46.46,0,0,0,.09-.61,10.27,10.27,0,0,0,.47-3.57,1.79,1.79,0,0,1-.76-.74,5.71,5.71,0,0,1-.43-1.36A1.44,1.44,0,0,1,86.76,69,6.85,6.85,0,0,0,86.59,67.91Z"/><path class="b" d="M99.15,64.61l-.08-.48a2.06,2.06,0,0,1,.31-.92,7.9,7.9,0,0,1,.84-1.18l.68-.82a4,4,0,0,1,1.34-.73,5.85,5.85,0,0,1,1.77-.69l.66,0a1.63,1.63,0,0,1,.54,0c.12,0,.54.09,1.27.17a8.84,8.84,0,0,1,3.38.24l.68.45.72.47c.31.21.68.45,1.12.72s1,.72,1.78,1.32c1.5,1.25,2,2.56,1.59,4l-.48,1.16a1.85,1.85,0,0,1-1.89.7l-.54,0a2.65,2.65,0,0,1-1.16-1.38l-.75-.62a7.75,7.75,0,0,0-3.71-2,3,3,0,0,0-1.92,1.18c-.6.71-.54,1.59.2,2.63a1.19,1.19,0,0,0,.15.66,5,5,0,0,1,.59.87,18.53,18.53,0,0,1,1.28,1.55,2.12,2.12,0,0,0,1,1.15l.4.76a16.72,16.72,0,0,1,1.74.93,3.94,3.94,0,0,1,.76.86L113.91,78a4,4,0,0,1,.78,1.1,2.12,2.12,0,0,1,.82,1.28,3.13,3.13,0,0,1-.2,1.33,1.29,1.29,0,0,1-.52,1.11,8.18,8.18,0,0,0-.8.73A17.31,17.31,0,0,1,112.06,85a9.13,9.13,0,0,1-2.69,1.52l-1.77.58-.54.12a10.48,10.48,0,0,1-1.55.17l-.48,0a4.47,4.47,0,0,1-1.37.19,6.94,6.94,0,0,1-3.4-.72.56.56,0,0,1-.38-.28c-.86-1.24-1.29-1.75-1.28-1.56a2.44,2.44,0,0,1-.39-1.18,8.44,8.44,0,0,0-.21-1.1.9.9,0,0,1,.15-.64c.32-.65,1-.73,2.15-.23l.8.38a2.31,2.31,0,0,0,1.35.59,4.57,4.57,0,0,1,1,0,5.31,5.31,0,0,0,1.14-.06l1-.54h-.06s.16-.08.36-.11a5.57,5.57,0,0,0,.88-.26c1.14-.42,1.57-1,1.29-1.75l-.45-.7a5.44,5.44,0,0,0-1.54-1.9l-.5-.27q-2.52-2.22-4-3.76a8.34,8.34,0,0,1-.81-.62,3.79,3.79,0,0,1-.94-1.75,7.1,7.1,0,0,1-.68-1.53l-.06-1.14c0-.08,0-.32-.09-.71a3.44,3.44,0,0,1,0-1A1.32,1.32,0,0,0,99,66,3.69,3.69,0,0,1,99.15,64.61Z"/></svg>
