<svg xmlns="http://www.w3.org/2000/svg" width="100%" height="100%" viewBox="0 0 426.46 75.43"><defs><style>.a{fill:#250058;}</style></defs><title>Roo_Logos</title><path class="a" d="M246.31,23.68a16.52,16.52,0,0,0-2.39-6.45c-1.45-2.21-3.27-3.2-5.59-4.34A37,37,0,0,0,223,8.81c-2.77-.07-5.55-.28-8.32-.37a50.06,50.06,0,0,0-13.1,1.05A31.39,31.39,0,0,0,195,11.83a27.68,27.68,0,0,0-11.26,9.67,19.21,19.21,0,0,0-3.19,9.21c-.59,9.68,6.63,17.48,14.12,22.52a10.15,10.15,0,0,0,2.43,1.3c1.22.4,2.91.28,3.89,1.2a2.61,2.61,0,0,1,.51,3.34,6.19,6.19,0,0,0-.87,2.72,5.8,5.8,0,0,0,0,1.5.58.58,0,0,0,.4.43c10.25,3.29,20.65,1.75,31,.56a5.25,5.25,0,0,0,4.57-5.58,42.54,42.54,0,0,1,.31-4.94,11.32,11.32,0,0,1,1.44-4.87A51.53,51.53,0,0,1,241.53,44a25.93,25.93,0,0,0,1.67-2.71c.46-.88.75-1.83,1.22-2.69a16,16,0,0,0,2-6.16,50.45,50.45,0,0,0,.22-5.07A24.87,24.87,0,0,0,246.31,23.68Zm-35,35.53c-.14,1.75-.6,3.49-2.82,2.91-1.71-.45-4.56.37-4.44-3,.08-2.09,1-3,3.75-2.15C208.66,57.42,211.63,55.59,211.34,59.21Zm4.3,3.37c-.71,0-1.9-1.63-2.09-2.67-.44-2.41,1-3.17,3.84-3.55a.59.59,0,0,1,.51.2c.84.93,2,1.82,2.18,2.85C220.56,62.81,217.63,62.54,215.64,62.58ZM226.84,60l-2,1.77a.58.58,0,0,1-.82-.06c-.62-.75-1.41-1.5-1.36-2.2s.93-1.4,1.64-2.09a.58.58,0,0,1,.8,0l1.79,1.73A.58.58,0,0,1,226.84,60Zm5.95-.79-1.71,1.34a.59.59,0,0,1-.79-.08l-.42-.47a3.81,3.81,0,0,1-1-1.54c-.11-.51.48-1.17,1.16-2.2a.58.58,0,0,1,.93-.06l1.88,2.18A.56.56,0,0,1,232.79,59.18Zm10.61-28a4.08,4.08,0,0,1-.16,1.39,2.29,2.29,0,0,1-.39.8.2.2,0,0,1-.15.08c-.14,0-.22-.24-.28-.37a8.74,8.74,0,0,1-.34-1c-.58-2.17-.83-4.34-2.15-6.24a7.92,7.92,0,0,0-5.33-3.38,13.22,13.22,0,0,0-8.09,1.8c-3.52,1.86-6.62,4.14-10.88,2.77a2.35,2.35,0,0,0-1.92.6c-2.65,2.56-4.22,1.53-6.14-1.13-2.55-3.51-5.72-6.06-10.66-6.13-7.55-.12-13.33,6.32-11.21,13.53a13.4,13.4,0,0,0,8.94,9c4.39,1.45,8.35.23,11.64-3.28,2.59-2.75,5.45-5.25,8.29-7.75,2.57-2.27,5.63-.29,7.07,4.06a22.2,22.2,0,0,0,3.61,6.92c2.5,3.12,5.84,2.26,8.86.68a29.87,29.87,0,0,0,3.19-2c.53-.37,1-.74,1.55-1.12s.93-.77,1.42-1.07a.45.45,0,0,1,.35-.08c.18,0,.24.28.23.47a9,9,0,0,1-1.38,3.07c-.75,1.44-1.5,2.89-2.28,4.33-.58,1.08-1.19,2.16-1.81,3.23s-1,1.92-2.14,2.39a8.82,8.82,0,0,1-1.67.47,1.64,1.64,0,0,1-.73,0,1,1,0,0,1-.56-.51,17,17,0,0,0-1.54-2.45.53.53,0,0,0-.24-.21c-.26-.1-.49.18-.63.41a11.71,11.71,0,0,1-2.46,2.56,1,1,0,0,1-.73.32.9.9,0,0,1-.5-.36c-1.27-1.59-.55-3.71-1.2-5.54a8.14,8.14,0,0,0-3.45-4c-1-.67-1.45-2.39-2-3.7-.66-1.61-.52-3.93-2.58-4.48a.63.63,0,0,0-.36,0,.55.55,0,0,0-.3.28A2.68,2.68,0,0,0,214,37.8a3.29,3.29,0,0,1,0,2.08,7.34,7.34,0,0,1-2.46,2.93c-1,.85-2.18,1.47-2.7,2.79a1,1,0,0,0,0,.92,1.06,1.06,0,0,0,.73.33c2.53.35,5-.7,7.59-.34,1.44.2,3.61,1.33,3.85,2.4.33,1.44-.48,4.21-1.54,4.65a5.73,5.73,0,0,1-3.53.42,3.06,3.06,0,0,1-1.74-1.36c-.54-.72-1.2-1.67-2.19-.95-.44.31-.5.93-.76,1.41-.94,1.72-3.56,1-5,.42-1.21-.5-1.71-2.81-2.48-4.33a7.51,7.51,0,0,1-.34-.77.51.51,0,0,0-1,0l-.3.84a7.85,7.85,0,0,1-.89,2.53,2.15,2.15,0,0,1-1.72.56A6.85,6.85,0,0,1,195.93,51c-2.47-1.89-4.47-4.4-6.76-6.55-7.32-6.83-8.94-16.91-1.53-24a34.86,34.86,0,0,1,7.85-5.68,35.27,35.27,0,0,1,5.22-2.22c1.8-.59,3.63-1,5.47-1.37A6.14,6.14,0,0,1,208,11,14.65,14.65,0,0,1,211.12,12a19.22,19.22,0,0,1,3.27,1.47c2.58,1.43.38,4.71.12,6.75a6.9,6.9,0,0,0,.49,3.41c.11.29.27.61.58.67a.63.63,0,0,0,.38,0,1.47,1.47,0,0,0,1-1.06,5.38,5.38,0,0,0,0-.9,8.3,8.3,0,0,1,1-2.77,8.5,8.5,0,0,1,1.68-2.44c.77-.86,1.38-1.95.57-3-.4-.53-1-.76-1.39-1.37a.7.7,0,0,1,0-.76.81.81,0,0,1,.62-.24A31.43,31.43,0,0,1,224,12a34.3,34.3,0,0,1,5.22,1,38.88,38.88,0,0,1,9.73,4.15l1.33.82c2.2,1.41,3.85,3.69,3,7.1C242.64,27.05,243.37,29.11,243.4,31.17Zm-9.14-.27a3.47,3.47,0,0,1-.34.7c-.47.75-1,1.49-1.46,2.22-1,1.41-2,2.8-3,4.12-.32.39-1.64.22-2.36-.06a1.79,1.79,0,0,1-.51-1.64c1.18-1.45,2.41-2.86,3.66-4.27.43-.49.8-1,1.22-1.52.59-.69,2.68-2.49,2.94-.67A2.35,2.35,0,0,1,234.26,30.9Zm-30.93-2.3a2.69,2.69,0,0,1-.16.45,9.24,9.24,0,0,1-.95,1.39c-.6.82-1.21,1.63-1.83,2.42-1.23,1.58-2.51,3.12-3.82,4.63a2.77,2.77,0,0,1-2.37.42,2.23,2.23,0,0,1-.47-2c1.36-1.79,2.77-3.55,4.2-5.29.71-.88,1.43-1.74,2.15-2.61.54-.66,1-1.7,2-1.73a2.21,2.21,0,0,1,.81.12C203.56,26.66,203.47,28.05,203.33,28.6Z"/><rect class="a" x="11.87" y="35.16" width="146.85" height="3.78" rx="1.89"/><rect class="a" x="268.39" y="35.16" width="146.85" height="3.78" rx="1.89"/></svg>
