<svg xmlns="http://www.w3.org/2000/svg" xmlns:xlink="http://www.w3.org/1999/xlink" width="100%" height="100%" viewBox="0 0 1200 1100"><defs><style>.cls-1,.cls-2,.cls-5{fill:none;stroke:#fff;stroke-miterlimit:10;stroke-width:0.5px;}.cls-1{clip-rule:evenodd;}.cls-3{clip-path:url(#clip-path);}.cls-4{fill:#fff;}.cls-5{fill-rule:evenodd;}.cls-6{clip-path:url(#clip-path-2);}.cls-7{clip-path:url(#clip-path-3);}</style><clipPath id="clip-path"><path class="cls-1" d="M541.81,1043.22c4.53,16.4,2.24-1.2,7,2.24-2.76,9.85,9.33-1.84,6.33,7,7.09,1.25-.54-21.31,13.83-19.39-4.66,10.15,2.36,5.27,3.53-.18,3-5.73,2.3,7.85,6.86,4.58-6.29-20.57,2.09-16.51,3.58-10,1.79-11.59,13.54-12.68,20.09-20.45,0,1.54.09,3.08,1.5,2.38-1.88,5.48.57,4,.07,12.3,1.61-1.78.09-9.41,4.69-7.12-3.58-9.83,2.76-6.47,4.14-3.17.11-2.65,3-6.68,2.06-1.58,5.94-1.34,1.29-10.59-.06-12.3,10.43-1.27,5.41,11.49,10.16,18.68-.22-3.32,3.76-2.42,1.79.41,5-16.94,18.81-.61,4.88,12-1.16,5.09,19.91-7.72,12.73-13.1,4.84.43,8.73,7.47,14,5.21-8.16-2.49,2.26-12.46-6.54-5.57-10.9-3.26,1.1-11.29-3.28-2.8,6.94-.85,4.84-13.24,3.32-16.66,3.69-1.55,1.74-4.38,5.43-5.94-1.48,9.27,1.84,18.74,7.48,11.94-11.89-10,3.86-5.34,9.3-7.12,30.78-35.45-3.11,3.17,10.06-25.39,3.28,3,10,9,8.69,16.3,5-4.13,7.29-14.38,6.95-3.56,31.3-10.3-9.87-4.79,11.18-13.87,20,9.82,6-2.73.85-6,9.79,5.4,9.14-.43,6.18-4.75,2.52,1.21,7,2.71,7.7-2.36,3.44,8.67,5,3.85,2.53,1.59,1-1,5.32,3.54,3.84-1.19,7.92,5.53,10,21.15-1,13.1-8.42,7.68,13.93,13,3.74,6,14.18-3.66,9.79,2.36,20.26-6.72-3.34-.82-2.49.52-4-4,2.49,1.81,5.7-1.31,7.87,2.79-4.47-9.39,18.14-29.7,10.14-13.09,15.61-19.12,8,2.83,27.59-19.44-.24,4.84,12.11,3.35,9.75-4-16.16,5.79,13.8-11.73,2.66-4,10.09,11.63,14.38-10.64,5.8-16.7,16.31,8.62,37.07-10.4,30.29-12.72,7.93-25.49,4,11.76,9.76-4,9.76,4.08,7.83-7.17,10.59-10-.74,4.16,2,9,.66,8.35,1,5.78,24.06-20.71,43.81-30.27-1.47-.44-2.81-1.84-4-4,13,2.3,28.18-18.87,36-20.76a10.38,10.38,0,0,1-1.6,4.77c20.14-11.34,31.33-27,53.38-39.6-14.71-5.12,31.84-11.3,22.58-30,7.37-5.77,8.07-.42,8.53-8.42,8.51,18.66,2.49-5.31,19.6-15.29-4.69,15.59,24.16-7.42,24-13.38,1.3.25,6.94-1,3.38-4.42,8.21-.77,2.84,15.71,11.56,22.94-.63-19.45,4.65-58.13,6.81-32.3-6.52,2,2.93,4,4,.69,3.21,12.57,4.64,29.64,11.94,13.77-1.65-16.38-14.83-30.88.26-37-.68,14.23,20.09,32.81,8.46.56-8.6-12.55,5.24-12,10.88-15.26,7,8.29-7.85,1.11,2,22.23,3.79-1.07,5.83.23,6.65,5.45,1.39-1.27,2.81-2.51,3.87-1.28.45-7.59-5.4-21.28-3.8-28.06,11.47-16.69,21.35,42.63,22.51,15.78-15-46.2-8.71-74.53,14.8-9,6.59-8.53-14-48.27-4.53-48.35-8.75-30.22,14.62,6.57,17.67,19.47,18,18.76-9.44-62.18-17.15-57.65-2.77-48.83,18.47-1.37,21.33-4.82.57-11.21-1.16-18-7.48-21,2.16.29,4.68-1.85,7.27-4.26-17-23.18-23.55-40.73-46.56-53.85,5.34-3.16,10.28-2.94,15.68-5.9-19.38-11.71-24.3-50.53-42.4-33.63-3.48-2.16-3,4.76-3.48,6.51-32.11-28.49,29.1-9.43-27-41.23,17.18-33-4.66-45.27-32.54-20.19-.9-6.32-8.9-3.07-11,1.76,1.17-8.61-6.41-13.28,1.35-20.9-.42,5.91,8.34-4.84,16.58,4.48,12.12-15.9-6.89-10.81-13.84-13.95.87,2.86-5.63,4.16-4.29,7.12-15.85-10.36-.11,2-4.19,7.69-4.25,12.09-19-7.71-26.82-4.16,5.44-11.24,8.7,1.44,8.58-12.31-26.31-23.85-71-14.32-38.43-3.19-1.47,7.44-4.09,6.77-5.76,2.8-1,9.27-8.73-3.22-9.53,4-2-6.26-3.89-5.5-8.6-3.89,41.35-37.06-82.42,40.61-92.77,42.75,11.64,14.83-5.4-5-.59,8-.92,3.5-14.68-2.23-11.38,6.65-8.4-5.74-16.38,6.54-15.27,11.92-4.45-3.35-19.05,5.51-25.73,14.71,2.87-2.82-1.38,13.38-4.73,8-12-7.39-11.23,20.28-16.29,18.94-5.48-17.81-19.79,8.48-13.29,10.31-17.3-5.9-2.84,4-19.11,5.94,8,8.3-11.34,6.86-.55,4-.73-5.92-10.37,1.42-5.39,6-7.47,6.3-12.69-3.93-7.94,4.69-10-6.15-40.77,42.41-54.51,36.48-16.35,20.95-54.52,47-62.8,62.53-12.55-1.09-32.76,33.94-30.84,23.72-11.1,8.17-23.92,16.71-29.08,24.1,5.86-8.84,11,1,2.65,1.49-15.77-4-19.63,11.7-29.4,19,10.81,12.52-1.59.33-5.79,12-3.43,10.78.17-8.67-12.35,7-19.22,9.73-23.48,28-25.66,18.12-5.59,12.45-14.29,18.13-25.29,22.9,6.19,4.8-6.35,10.17-.2,14.28C453,798,474.1,761,446.86,784.11c1.33,1.29,3,.49,4.29,2-9.16-1.63-11.77,19.17-13.57,5.1-9.1-2.5-3.84,7.43-1.14,7.93-1.66,1.67-5.91,2.75-2.62,5.54-17.5,10.19,8.26,5.8-20.16,19,3-13.52-3.32-1.32-4.87,2-32.09.45-3.18,28.55-20.91,17.75-1.44,8.58-8.17,18.52-8.06,11.46-7.09,7.41-14.13-1.39-14.17,9.06,25.3-5.47,4.9,9-1,.79-9.71,8-25.3,27.19-30.66,21.67-1.46,5.61-36,31.44-49.35,36,9.82,5.36-7.13,6.3-7.48,7.72-20.41,12.76-5.5,13.25-.75,3.89-.47,1.2,8.95,13.17,4.59,12.37,7.36,10.24,6.35,4,13.83,7.06-7.26,19.41,8-13.86,14.87-.8C261.08,995.44,297,960,278.83,991c2.67,3.14,6.34-1.62,9.24-.3-3.91,2.37-6.58,11.76-6.1,12.15,8.52-8.91,30.47-2.11,17.71,5.43,2.12-16-23.77.61-17.56,8.87,16.29,6.9,15.49,20.47-8.19,31.8-2.81-23.63-1.41,5.09-11.78.48,7-3.42,7.27-10,2.43-5.52-2.56-17.09-3.76-6.27-14.34-8.23,6.37,5.65-.33,14.15,6.88,10.62-10.39,29.49-19.76,47.08,8.55,27.14-13.19-5.17,14.27-6.72,15.28-6.81-6.74-12,8.31-20.89,1.07-17-1.29,16.88,5,5.82,8.56,7.26,2.31-6.82-6.33-14.72,4.16-14.48,12.75-6,10.83,19.14,13.82,21.7,21.13-21.06-1.11-2.61.8-22.26,4.35,5.15,6.5,9.57,13.59,8.75-5.45,20.86,12.06-24.48,17.38-5l11-12.41c22.61-5.37-17.7-2.61-4.15-15.8,2.35,26.06,30.29-27.84,39.07-3.41-8,6.47-10.58,2.72-5.34-1.21-7.93-3.91-11.53,10.41-18.75,9,6.52,18,16.76-2.8,9.64,3.2,2.29-8.69,12.4.46,14.91-7.86-6.8,12.79-33.51,21.69-22,38l3.66,2.05c4.88,2.62,10.92,8.37,17,7.12,4.15-.86,3.35-4.1,6.65-6.23,6.18-4,16.09,1.72,22.85,1.29,2.72-.18,3.93-2.2,6.44-2.53,1.56-.2,3,1.35,4.56,1.41,1.26,0,2.31-1,3.18-1,7.49.09,6,1.27,9.38-5.2a79.61,79.61,0,0,1,10.77,5.78c1.12.74,3.75,3.79,5,3.76,4.48-.12,4.7-8.9,11.47-8.45,5.22.35,9.62,4.24,14.68,4.94,5.58.77,8.06-4.14,12.63-3.79s6.78,5.85,10.41,7.33c2.79,1.14,3.22.09,6.13-.63,3.66-.91,7.38-1.33,11.07-1.93,4.06-.67,5.61-5.72,9.75-5.75,1.52,0,3.42.27,4.92-.19,1.18-.35,1.69-1.34,2.46-2.19s1.93-2.8,2.06-2.76ZM398.48,833.47c-2.45,2.14-4.86,4-6.65,1.55C393.85,832.34,395.62,828.56,398.48,833.47Zm-106,151.83c-4.28,2.91-4.59-.22-9-1.68C290.88,981.2,292.52,982.34,292.47,985.3Zm-2.08,8.87c-2.22-12.61,10.25.52,13.61-.19C295.53,998.09,291.36,992.31,290.39,994.17Zm845.5-479.7c.74-3.94,6.78-5.11,9.82-4.55A10,10,0,0,1,1135.89,514.47Zm30.64,53.33c14.83-2.28-7.31,16.76-10.6,15.13.67-5.48,12.13-5.71,12.56-10.28C1158.17,576.93,1162.05,569.92,1166.53,567.8Zm-26.64-25.88c-1.86-2.73-.52-4.9-3.64-7.85,6.11,3.14,5.09-8.75,9.82-4.47C1142.53,533.46,1140.42,537.55,1139.89,541.92Zm-46.47-76.83c0-4.28,7.81,1.05,5.64-5.33C1104.14,468.17,1097.05,466.52,1093.42,465.09Zm37.37,60.8c1.6,4.5,4.28.24,6.21,2.14C1135.37,540,1127.5,533.6,1130.79,525.89Zm37,79.82c-5.24,2.53-5.68,5.87-1.36,10.11-13.82,21.23-4.24-5.15-4.64-7-3.66,4.23-6.4,1.48-9.61,2.37-.81-11.24-3.79-9.13-.18-19.64,24.93-5.24-12.16,9.11,13.24,5.47C1153,601.34,1165,605.34,1167.79,605.71Zm-14.72-22.25c-.89,3-2.69,11.8-7.54,7.9C1150.08,589.71,1148.19,581.65,1153.07,583.46ZM1037.43,427.09c1.85,4.86,6.53,4,3.63,7.84C1017.12,436.46,1035.23,435.59,1037.43,427.09Zm98.25,175.79c-.42-9,5.75-11.37,9.59-9.51C1141.53,598.45,1139.43,603.57,1135.68,602.88Zm26.2,32.76c-2.07-2.8-2.65-5.31-1.77-7.55,1.45,3.15,4.33-4.47,5.45,1C1161.58,630.78,1162.28,633.31,1161.88,635.64ZM1135,587.31c-3.35-2-5.69.34-5.91-4.21C1132.23,578.46,1138.11,584.14,1135,587.31ZM1032.89,450.48c4.55,1.95,11.77,8.25,18.58,12C1049.3,472.05,1037.75,456.79,1032.89,450.48Zm-7.63-4.65c3.42,4.91,3.44-5.19,7.56-2.47C1033.25,448.12,1024.72,453.82,1025.26,445.83Zm-30-45.88c-1.24-9.16,5.39-6.43,4-3.19C997.16,396.43,996.72,399.45,995.31,400ZM1100.62,698.6c-7.37-13.32,4.51-2.55,5.93-2.88C1102.7,698.58,1101.73,698.54,1100.62,698.6Zm-14.61-1c1.33,3.79,4.32-4.68,5.65-.89C1090.83,711.75,1089.42,707.78,1086,697.64Zm-53.77-30.78c-3.57-4.5,1.12-7.26,2.38-10.75C1036.84,660.34,1034.21,663.55,1032.24,666.86Zm-9.26,7.25c-5.6-7.77,4.48-7.54,3.62-6.39C1027.08,673.62,1023.13,671.29,1023,674.11Zm23.75,34.76c1.67-2-2.13-5.23,1.84-6.78C1052.27,704.7,1050,711.1,1046.73,708.87Zm-44.19-66.75c-1.74-6-10.36,3.65-1-6.35C1003.57,638.24,1004.16,640.43,1002.54,642.12ZM1053.62,739c4.29-.91,4.35-7.82,7.22-5.65C1060.68,737.44,1057.43,740.09,1053.62,739Zm-3-4.75c-5.37,9.5-10.26-6.66-4.72-8.51,8.12,3.69-11.77,7.22,9.32,8.47C1053.39,736.19,1052.13,734.24,1050.59,734.29Zm-6.81-10.67c-9.11,8.71-4-5.54-2.76-6.73C1043.69,721.3,1043.69,722.38,1043.78,723.62Zm7.69,24.2c-1.73-.71-3.38-2.13-4.81-5.13C1051.88,736.34,1056.66,744.2,1051.47,747.82Zm-23.78-27.63c2,2.84,3.86,5.61,1.72,7.55C1027.62,727.45,1024.57,722.37,1027.69,720.19Zm-11.32,55.32c-13.35,6.67-5-7.9.66-11.48C1013.09,769.53,1012.3,773.09,1016.37,775.51ZM821.91,474c1.83-2.17,3.9-7.16,6.88-3.57C826.55,471.13,823.71,476.53,821.91,474ZM998.57,790.81c1.5-4.95,1.49-8.5,5.45-6C1002.76,787.41,1003.26,794.85,998.57,790.81Zm-119.76,80.3c.51-3.76,5-2.77,7.12,1.58C883.07,875.56,881.46,869.71,878.81,871.11Zm-34.23,1.63c1.34,2.11,8-1,5.81,4.36C849.06,875,842.42,878.11,844.58,872.74Zm-8.4,16.83c5.41-7.68,1.26,7.42-1.83,3.43C832.94,889.34,832,888.6,836.18,889.57ZM830,903.19c.29-3.89,9.44,3.12,7.39-5.43C842.54,902.1,832.17,909,830,903.19Zm-55.64,30.7c5.55-.59.56-3.08,5.44-6,7.53,13.37,11.53,1.8,16.13-3.56C805.33,939.21,778.54,938.1,774.32,933.89ZM755.4,918.38c3.2-1,7.43-9.14,9.75-4C759.93,915.25,759.68,921.38,755.4,918.38Zm-4.07,34.93c.85-8.9,6.48-3.73,5.62-.78C755.41,950.3,754.22,957.68,751.33,953.31Zm-4.31-2c5.15-4.83-9.18-9.63,1.42-9.92C749,944.88,753.5,955.66,747,951.33Zm-8.8-9.16c1.54,4.23,4,2.14,5.52,6.37C739.49,952.71,737.58,945.16,738.22,942.17Zm-62.76,34c.56,4,2.88,3.35,2,5.56C667.69,980.53,671.16,978,675.46,976.19Zm-9.57,9.11c-4.35,11.67-5.27-.94-7.86-2.81,3.54-.41,2.09-6.77,5.16-4C659.07,983.56,661.05,984.66,665.89,985.3Zm-23.13-5.23c-4.17,4.57,8.75,7.36.64,8.35C644.81,986.94,634.76,978.69,642.76,980.07Zm3.13,29.39c-8.41-1.51.25-8.69,1.42-9.92C649.93,1003.55,647.07,1006.31,645.89,1009.46ZM635,989.58c5.71-1.12,1.84,9.27,7.12,1.61C647.15,1006.38,631.78,998.22,635,989.58Zm-1.25,15.08c1.29,3.8,4.33-4.59,5.61-.78C643.62,1015.25,637.1,1010.31,633.72,1004.66Zm-2.53-1.6c-7.55,8.74-9.14-14.54-4.09-16.29C629.33,993.21,621.8,1000.75,631.19,1003.06Zm-26.34,4.29c2.91-6.83,5.25-7.5,6.95-3.56C607.88,1005.91,606.56,1007.85,604.85,1007.35Zm-158.5-207c-1.46-2.81-2.24-10.63,2.17-8.72C446.63,794.29,448.25,797.75,446.35,800.38Zm-24.09,27.25c-3.84-2.7,4.29-7.73,5.44-5.92C425.26,823.54,426,826.09,422.26,827.63Zm98.15,230.19c-2-2.54-5.41-3.46-2.7-6.76C520.08,1051.51,523,1055.69,520.41,1057.82ZM402.59,881.5c-3.45-2.61,1.14-8.45,3.65-6.33C404.61,877.18,405.26,879.72,402.59,881.5Zm-16.64-12c6.09-1.91,1.94-2.79-1.49-2.39,7-5.8,7.33-11.72,11.53-3.51C390.12,862,391.3,874.81,386,869.51Zm122.77,183.93c4.81-3.34,11.65,9,.73,3.93C507.48,1060.45,509.35,1054.46,508.72,1053.44Zm-67.31-78.12c3.5,3.83,3.55-8.22,6.64-1.56C447.26,977.11,440,982.23,441.41,975.32Zm-53.72-86c-3.7-4,2.05-8.36,4.12-3.15Zm8.43,30.6c-4-6,6.25-8.8,4.81-14.25,1.23,2.14,2.56,3.53,4,4C400.53,912.76,396.09,915.85,396.12,920Zm-19.62-48.5c1.95,5.57,2.08,3.9,0,0C368.76,880.82,375.17,874.51,376.5,871.45Zm32.84,73.23c-7-3.86,10.78-7.7,7,.36C412.59,937.57,412.09,945,409.34,944.68Zm-24.51-35.5a8.4,8.4,0,0,0,4.41-5.13c4,1.63,2.38,2.28,3.27,2.79C387.79,908.47,388.52,911.58,384.83,909.18Zm-6.71-10.74c9.53,1.26,2.37-7.83,7.39-.36C383.26,902.57,377.78,903.37,378.12,898.44Zm-9.84-14.91c-3.86-2.95,7.78-1.77,7.53-1C370.68,888.51,371.28,884.34,368.28,883.53Zm-8.93-7.8c4.68-.75,1.23-8.42,5.44-5.92C366.21,879.47,365.18,878.89,359.35,875.73Zm66.22,101.1c-2.5,2.45-4.22-.46-6.08-2.41C423.57,970.85,424.54,972.67,425.57,976.83Zm-36.45-39.41c-.31-3.87,11.08-2.43,9,.4C391.41,935.49,395,942.7,389.12,937.42Zm-14-24.32c2.47,2,5.81-2.15,8.14.84C380.44,917.9,373.67,917.18,375.08,913.1Zm39.25,65.26c1.64,1.36,3.41,1.85,5.06,3.2C416.23,986.14,411.21,981.62,414.33,978.36Zm-37.5-49.77c-.11-12.45,2.86,5.3,7.38,4C383.33,942.31,377.06,930.67,376.83,928.59Zm-16.71-19.92c-6.36-14.5-6.88-7.81-12.81-13.16,2.26-1.19,1.05-3.17,1.62-4.75,13.7,11.9,5.83,12.06,14.84,11.58C364.21,908.24,360.28,905.84,360.12,908.67Zm14.4,40.13c-19.8,4.38,1.65-12.12,7.52-7.49C376.65,945.27,376.16,944,374.52,948.8Zm-25.93-36.62c5.78-4,10.59-1.34,15.25,2.45C354.65,916.2,356,913.91,348.59,912.18Zm27.43,39c3.71-.27,7.78-3.09,10.66,2.43C383.59,953.56,375.63,954.25,376,951.2Zm-36.84-56.52c.82-2,5.54-8.16,6.47-6.72C345.44,890.06,342.83,896.75,339.18,894.68Zm31.55,35.86c2.86,3.37.67,6.39,4.48,7.17C367.83,943,369,934.94,370.73,930.54Zm19.51,55.65c4.08-.63,4.22-5.25,8.72-3.13C394.89,990,393.12,987.76,390.24,986.19Zm10.28,11.55c2.06,1.12,8.91,1.21,7.57,4.8C396.09,1000.33,390,1012,400.52,997.74Zm-37.93-68c2.69,12.36-15.52-1.68-11.14-5.6C349.56,920.69,362.52,937.7,362.59,929.7Zm43.32,81.57c-5.65-7.77,1.25-5.08,3.39-4.36C408,1010.05,407,1010.56,405.91,1011.27Zm-23.47-15.59c4.11-4.8-1-14.6,5.46-5.94C385.41,992.05,386.78,999.7,382.44,995.68ZM338.13,918c6.48-5.21,2.43,10.75-1,10C324.16,921,327.69,928.74,338.13,918Zm52.18,80.5c-1.63,5,2,9.7.05,12.3C385.85,1002.25,382,1006.37,390.31,998.49ZM340.38,930.8c.88,2.37,3.45,1.88,2.24,3.59C334.64,940.77,333.66,942.16,340.38,930.8Zm16.26,84.6c-5.31-10.84,3.81-3.43,2.47-10.71,2.87,3.44,7.37-4.43,10.5-2.73C365.66,1007.27,358.09,1012.27,356.64,1015.4Zm-36.06-74.76c-6.26-9.9,4.6-9.88,7.24-5.54C324.76,949,323.46,934.2,320.58,940.64Zm3.17,9.93c-6.37-7.42,7-5.91,4.13-3.15C326.51,947.23,325.63,950.19,323.75,950.57Zm-9.07-7.17c1.27,3.82,3.55.82,5.05,3.19C308.42,960.68,312.5,951.26,314.68,943.4Zm12.84,25.45c-7.35-12,.08-4.16,3.11-2.38Zm-41.84-35c0,6.74,8.9,8.15,4.63,12.34.37-7.34-10.41-2.44-9.58-10.32-1.78-2.52,12-8.31,17.11-9.56C295.07,929.89,291.12,934,285.68,933.82Zm50.75,68.82c2.49-2.41,4.73-3,6.38.4C340.31,1005.45,338.09,1006,336.43,1002.64ZM318.1,983.13c-4.29,4.65-7.36-5.63-3.45-8C317.69,978.26,315.07,980.06,318.1,983.13Zm7.63,17.1c2.42,4.51,5.52,4.29,8.06,7.95C330.76,1011.65,324.7,1003.66,325.73,1000.23Zm-24.45-16.56A5.87,5.87,0,0,0,297.9,981c-7.56-11.72,20.07-23.61-1.12-4.45C305.43,976.58,304,981.94,301.28,983.67Zm1.06.57c6.57,6.13-7,2.85-7.3,2.57C298.84,984.11,300.72,983.87,302.34,984.24Zm30.22,46.23c-8.11-3.34,2.26-5,2.94-2.4C333.75,1033.7,332.46,1033.59,332.56,1030.47Zm-7.41,2.1c6.23,11.55-3.82,15.93-2,1.65C303.21,1039.1,317.63,1032.3,325.15,1032.57Zm-22.12-14c-7.42,2.95-2.59-8.5,1.54-5.34C299.94,1015.8,302.39,1016.17,303,1018.6Zm-18.65-5.14c6.91-20.57,18.49,8.41,7.44,6.56C293.14,1024.7,290.85,1010.11,284.38,1013.46Zm19.25,15c-10.75,3.14-8.54-.06-5.67-6.21C301.26,1026,304,1025.34,303.63,1028.43Zm-49.71,45.26c-4.4-4.85,6.56-9.28,2.85-16.45,8.39-.51,5.44,7.59,6.09,9.45C257.61,1067.21,256.67,1073.82,253.92,1073.69Z"/></clipPath><clipPath id="clip-path-2"><path class="cls-1" d="M706.21,12.53c9.09,8.55-9.92,20.42-23.45,11.24C685.22,25,686,28,688.93,28.72c-15.61-.71.51-6.48-15.66,11.92,3.9-10.16-12.76-6-2.92-.17,12.81,10.86-21.36-15.08-17.35-5,5.2.39,8.53,10.88-6,6,4.77,10.94-.86-6.87-14,.55,3,2.73,1.76,3.21,5.65,5.51-3.2-1.63,0,2.43-3.57,1.3,5.22,12.54-6.36-2.28-6.44-6.93-1.62,12.46-7.19,1.63-42.42,26.93-2.44-1.76-1.41-.09-3.37-1.39-14.75,6.14-28.42,14.62-41.79,23.07-38,24-74.06,50.7-110,77.43q-28,20.87-55.93,42c-30.33,22.87-59.55,47.61-90.22,70.72-25.45,19.17-50.93,38.37-74.59,59.71-5.93,5.36-12.48,10.63-17.67,16.74-4.49,5.28-4,7.81-9.74,6.7-2.19-.43-1-4.05-6.5-3.22-3,.45-6.2,3.78-8.49,5.55-5.12,4-14.72,9.14-18,15.13-1.89,3.49-.28,6.6-3.24,9.63s-7.58,1-11.31,3.61c-3.07,2.11-3,5.72-5.49,8.28-3.75,3.84-14,7.23-15.72,12.41-1.11,3.38,1.75,9.57,2,13.3.3,4.77.12,10-2.31,14-.79,1.29-9.89,9.84-11.5,7.06,5.6,9.64,1.86,15.74-4.82,23.43-5.4,6.24-11,12.23-16.07,18.77-7,9-9.41,17.81-14.79,27.29-2.15,3.81-5.58,7-8.07,10.75-2.84,4.24-4.55,9-7.29,13.27-3.08,4.88-8.08,9.08-10.14,14.53-4.76,12.57,3,52.32,21.6,39.76,4.43-3,6.89-6.82,9.45-11.19,1-1.71,2.33-6.94,4.26-7.71,3.85-1.52,1.49,1.08,4.26,2.87,1.89,1.21,1.56,1.84,3.53.47,2.23,5.24.82,5.05-1.15,9.21-2.35,5-3.56,9.58-5.31,14.85-3,9.11.62,14.84,4.91,22.76,2.16,4,3.29,9,6.41,12.33,2.65,2.86,5.23,2.8,8.09,4.9,11.4,8.39-5.72,29.89-4.68,42.3.8,9.51-2.21,22.51,3.48,30.51,1.71,2.42,19.78,19.81,20.49,19.37-.28.18-4-9.29-2.85-5.45-2.17-2.22-1.22-1.65-2-3.33,1.66-.54,7,7.93,5.77,4.15,11.06,10.08-4.34-34.15,12.68,2-.5-12.19-3.15-17.82,6-1.42-2-2.7-2.11-3.53-.58-2.2-1-.56-7.07-15.77-3.5-10.85,6.07,10-5.11-9.21,2.26,1.84-4-7.23.16-.51-3.64-7.45,3.49,3.77,8.12,16.54-.56-4.85,3.89,4.68-.21,2.79,7.61,14.49,1.89,3.32.41.2,2.68,4.22-2.5-4.84,1.33-1.28-1.18-3.35,3.75,7.07.08-3.64,6.4,9.69-1.51-5.16,3.88-1.59,9.77,4.32,8.31-11.28,12.58-30,17.15-3.08,4.72,9.31,6.34,1.86,8.15-15.07,9.45,3.48,19.14-38.51,11.68-17.7-17.54,24.4,0-39.08,6.48-4.13,17.78-7.24.78-23.71,34.29-19.26-14.78-9.38-3.09-2.75,7.49-21.88-1-5.42,6.86-15.18,4.07-.8,7.44-4.48,31.31-13.23,32.15-35.15,3.32,3.54,33.07-15.32,38.89-47.35,4.42,14.74,4.26-13.15,9.76-2.08,10.49,15.14-8.33-19.16,10.63,3.85-3.94-1.89,12.92-8.42,1.44-12.52-1.74-5.51-.28-5.54,9.09,5.72-4.72-12.65-2.93-6,1.2-6.95-9-8.83,12.71-7.17,16.56-17.17,15.14-3.46.83-15.88,20.55-9.67-3-3.14-1.29-6.29,3.06-2.66-3.23-15.11,4.58,2.39,15.69.07-23.3-7.95,3.76-1.14-11.7-11.41,4.28,1.33,11,7.12,2.27-5.89,15.69,13.15,20.61,1.61,33.72-16.6,3.41,2.78,2.52.09,4.9,1.57-4.32.29,2.61-18.86,30-16.83-10,3.38,30.08-28.12,9.55-15.26-3.14-2.67-2.53-1.83-5.79-4,15.25-.11,10.69-22.23,24.61,2.46-6.9-1.94,15.1-19.55,18.65-13.16,2.82-3.17-.19-6.71,7.13-3.13,14.18-16.4-5.85-12.44,9.6-22.8,8.2,24.34,2.29,5,15,6.71-6.86-18.15-4.29-6.63,5.28-13,9-4.3-16.94,12.83,5,16-6.49-11-3-5.58,5.81.16,1.92-21.33.26-20.45,4.29-8.14,4.49,2.83,5.61-3.68,3.72-7.87,17.77,17.67-3.25-11.45,4.64-3.39,5.8,3.57-8.22-10.2-6.25-.23-7.38-13.41,10.64-7.53,4-18.36-4.7-1.62,2.1-9.12-1.44-2.83,9,15.09,15.28,24.94,8.15,6,4.45,4.42,14-20,11.46-12.17,7.58,4.72-.72-19.34,19.71-3.8,4.68-14.46,24.3-20.33,32.16-29.73,15.45,1,12.29,7.8,8.18-7.07-4.42-4.86,33.15,15.49,13.2,2.28-7.84-16.58,6.86.36,12.64-14.75-7.52-20.86-1.78-3.07,8.59,1.18,1.43-5.05,5-5.64-.4-7.35-14.44,1.25,7.21-11.27,8.2-12.32,13.48,10.07,31.89-23.74,35-12.93,3.46-12,6-22.77,10.87-7.83,9.74-2.23,20.33-1.18,19.11-9.2,5.12,3.85,18.32,0,11.44-16.66,10,5.19,9,3.34,22.34-9.54-15.84,17.57-16.94-18.86-5,1.19.75-17.39,7.28-13.91,24.16-16.64-2.7-7.29,4.07-21,1.86-6,10.1-2.84,29.77-16.51,18.19-14.49-9.43-5.27-17.77,11.34-34.65,8.24,4.9,5.36-11.34,3.89-27.22,16.46-5.72,9.66-.75,11.81-18.36.21-5.15-.69,3.43,13.46,1.52,14.5-12.87-17.61-11.7,8.42-28.81-6.75,4.52,21.72,2.09,7.3-19,6.08,9.73,20.12-7.88,0-11.17,7.94,9,2,4.15,1.56-6.62.83-.68.92,3,3-6.3,3.43,8.92,2.4-22.68,12.73-13.13,1.43-.75-1.87-2.77,3.83-6.35-2.32,21.37-7.94-10.7-9.08,15.1-24-4.47,8,.12,19.7,11.63,6.27,7.62,17.33,15.43-24.35,24.22-10.71,0-9.22-10,3.65,28.31-2.48-4.66,1.63,11.88-25.4,18.94-12.52-9.57-6.88-.52-7.21,54.16-19.07-6.89-13.78-16-12.56-14.95-21.94.21-1.15,20.56,2,21.55-.47-6.62-7.8-12.76-16.39-.58-9.66,21.23-10.24-25.15-7.88,2.37-11.61-4.58-11-6,.6,19.2-5.37-.19.75-11.49-15.67-2.3-8-1.85-7.6,11.72,10.62,14.37-10.82-3.58,3.75-2.65,3.84-14-5.74,13,17.55-32.25-8.92-23.57,10.18-2.9.38-4.26-6-12.86-3.66,6,5.73-4.54-.74-.17,4.77-16.13-7.05,11.74-.51.38-11.89-12.68,11.44-2.4,19.53-19.08,16,6.88,6.77-6.49,15.05-7.94-9.48-7.45,2.53,69.19-24.52,5.9-29-1.57,7.16-3.56,4.91-12.51,2.86,19.14,5.7-6.28,9.46-26.7,20.5,19,13.33-19.16,1.06-10.31,8.94-11.78-1.28,9.94,11.53-17.06,6.28-20,18.83-25,25.93-46.88,30.27-2.87-2.09-5.72,10.55-6.26,6.56-5.57.52-5.72-8.48-10.37-6.11,8.57,4.12-.39,13.66-4.22,16.61-2.64,2-6,4.26-9.6,4.25-2.68,0-3.48-1.18-5.77-1.77.68.17-6.85-3.1-5.23-.94-2.63-3.52-6.86-1.6-10-3.63-6.63-4.3-.29-5.53,3.48-7.7-2.24-2.83-.56-4.68,2.43-1.72-2.67-3.91-.6-11.63,6.73-6.68-7.16-13.61,10.53,10.57,2.56-9.56,8.3,15,3.8-16.8,14.78,4.89,8.1,1.08-10.23-5.26,7.56-4.52-17.69-8.93,6.39-8.34,12.1-23-1.51.51,6.23-14.77,19-11.74-3-7.06,2.84-2.27,7.88-9.18-2.28-.73,0-4.93,3.31.17-3.33-3.67,4.19-3.22-2-7.88,2.49-7,19.43,7.13,16.59-20.44,10.47,16.7,9.92-10.89-12.11,5.27-15.26-9.68,21.43-22.55,24.81-28.4C714.58,78,702,72.88,711.63,85c-9.94-1.4-17.76-2.37-43.08,10.53,3.53,3.57-3.45,5-5.2-2.67,4.91,5.45-.92-8,2.08-2,4.47-5.65,1.84-2.64,8-15.43,5.74,2.65,1.35-9.17,12.62-8.25-4.34-12.37,14.54,5.63,9-2.43-8.05-3.35,10.31-23.86,15.32-23,9.53-3-11.63-18.66,6.85-7.33-6.77-.28,9.57-11.78-1.38-11.27C716.23,15.55,715.89,25.71,706.21,12.53ZM601.11,62.87c1.71,2.85-1.46,1.16-2.68,1.25C597.28,61.79,599,62.19,601.11,62.87ZM97.34,636.57c.23,2.4,1.88,5.22-.63,2.57C95.65,637.06,95.58,634.5,97.34,636.57Zm38.72,76.08c-.17,2,.08,2.74,1.52,7.45-2-3-1.33-1.22-.58.84a81.49,81.49,0,0,1-4.22-7,67,67,0,0,0,4.43,8.36c-1.34-1.52-5-8.13-6.53-11.85,2,5,.18-8,3.53,1.78C133.89,710.45,134.71,709.91,136.06,712.65Zm174.42-123c-1-2.72,2.09-.47,1.95-2.14C313.57,590.42,312.51,590.62,310.48,589.66Zm64.58-58.28c2.1,1.94,3.43.3,5.16,3.41C377.35,532.35,377.21,535.81,375.06,531.38Zm63.77-39.82c-.52-.1,0,0-.68.81C436.61,491.93,433.36,489.49,438.83,491.56ZM799,245.21c1.09-1.2,2.11-2.47,5.29-1.71C803,244.26,801.92,247.82,799,245.21ZM738.56,230c-2.31-2.62,3.15-6.18,5.88-1.84C740.24,226.45,743,231.9,738.56,230ZM832.22,154c.79,1.06,0,0,2.43,3.19C832,156.24,830.13,156.93,832.22,154ZM634.4,171.39a11.15,11.15,0,0,1,5.58-3.08C640.12,171.53,637.92,172.2,634.4,171.39Zm44.72-36.29c1-.29,2-2.72,4.22-.57C682.72,135.2,682,137.88,679.12,135.1Zm25.93-16.65c-.89-.74-4.4-5.15-1.11-3.35C705.91,116.08,706.82,119.41,705.05,118.45Zm4.23-90.68c3.11.28,1.84.08,0,0C707.72,27.23,712.59,22.28,709.28,27.77ZM665.62,45.12c.35-.7-1.13-2.91,1.61-1.65C669.57,47,666,45.2,665.62,45.12ZM619,55.46c-2.27-2.1-1-3.24,1.94-1.8C622.69,56.37,620.63,55.75,619,55.46Zm-6.25,4.61c-.81-1.92,1.84-2.49,4.71,0C615.1,59.4,616.69,62.23,612.73,60.07Zm167.68,63.77c-1.82,1.17-1.33,4.24-4.26,4.49C774.3,124.32,777.51,122.66,780.41,123.84ZM661.89,86.61c.81-.54-.51-3,2.06-2C665.13,86.7,664.8,89.38,661.89,86.61Zm129.56,46.25c2.16,1.16.78-2.48,3.72.64C794,133.62,794.42,136.45,791.45,132.86Zm.33,3.08c-2.57-1.34-7.91.26-4.9-4C788.83,132.87,789.32,132,791.78,135.94Zm-12-2.24c.38-1-1.16-3.63,2.14-2.25C784.2,134.69,782.67,134.77,779.75,133.7Zm-88-23.26c0,1.66,1.1,3.93-3.74-2.19C687.74,106.84,686.88,104,691.77,110.44Zm83.1,31.79-1.56-2.94C774.5,139.85,778.47,141.11,774.87,142.23ZM825.41,159c4.63,3.1.55-1.2,3-.84C832.5,161.23,827.51,163.37,825.41,159ZM688.23,116c-3.93-.92.08,5.76-6.25,1.55,5.89,8.8-10.52-3.54,3.26-8.52C688.76,112.78,685.69,106.56,688.23,116ZM595.75,71.39c-2.84-2.79-1-3,0-3C598.08,70.61,597.61,72.12,595.75,71.39Zm105.56,47.39c-1.09-.43,0,0-3.25-1.25C697.66,115.57,697.12,114.46,701.31,118.78Zm111,43.79c-1.79-1.87,4.14-5.45,6.66,1.94C817.16,163.74,816.57,164.3,812.26,162.57Zm-47.69-15.42c-1.19-2.25-3-5,.19-3.57C764.3,144.43,767.5,148.38,764.57,147.15Zm31.9,10.21c3.07,5-.11,2.41,0,0C800.58,157.59,801.68,170.15,796.47,157.36ZM665.41,119.83c22.56-20.6,8.21,20.37,7.7,1.59C666.32,112.61,672.32,135.34,665.41,119.83Zm99.43,30.45h0C772.28,156.82,759.48,150.13,764.84,150.28ZM580.66,76.93c-3.34-4.21,3.57-.58,2.24-.63C581.79,76.13,583.34,78.72,580.66,76.93Zm209,89.79c.66-.81.65-.39,0,0C787.7,164.73,789.33,162.4,789.66,166.72Zm-21.88-2.55c-.65-4.26,0-5.57,0,0C770.09,164.48,755.49,157.63,767.78,164.17Zm22.64,4.05c1.36,2,3.35,3.32,5.2,4.84-3.19-.81-14-4.26-3.55-4.3ZM755.29,161c4.68,3.37,1.7-1.35,4.3-1C764.4,165.33,759.25,165.68,755.29,161Zm-3,.76c-2.65-5.55-5.87-6.43,0,0C750.33,163.18,749,166.18,752.27,161.78Zm-21.88-7.4c-1.47-3.14-.36-4,3.56-2.34C734.76,154.59,733.05,154.92,730.39,154.38Zm57.21,17.83c.34,2.42-4.58.36-4.05,3C782.68,174,782.24,169.67,787.6,172.21ZM666.24,130.65c-1.06-2.73-.45-1.63.37-4.5C668.75,127.65,671.15,127.84,666.24,130.65Zm111.49,42.57c2,.44,1.41-1.39,3.88-.56C783.22,175.09,780.19,175.74,777.73,173.22ZM566.89,81.11c-.32-2.48,3.29-.72,3.54-2.6C573.57,82.62,569.21,81.62,566.89,81.11Zm232.76,101.4c2-.43,6.3,12.63-3.53,1.34C793,203.41,785.51,170.77,799.65,182.51Zm-40.46-12c-2.65-3-3.89-4.86-.87-4.68C756.66,167.24,761.24,169.35,759.19,170.47Zm30,9.15c-1.42-.2-1.3.92-3.44.1C784.25,177.2,787.21,176.63,789.18,179.62Zm-126.07-46.3c-1.19,4.33-2.34-4.72-5.86,4.89C657.56,132.28,645.62,121.44,663.11,133.32Zm-3.51-2.2c-1-2.32.26-2.42,3.37-.78C663.57,132.26,660.94,131.08,659.6,131.12Zm118.72,50.46c-.58-3.17-2.18-4.53,0,0C778.69,182.08,771.86,180.07,778.32,181.58Zm6.18,2.76c-1-2-1.45-3,0,0C783.61,184.07,777.2,180.87,784.5,184.34Zm-65.3-19.43c.72-1.53.23-1.25,0,0C714,164.91,717.82,158.12,719.2,164.91Zm55.92,18.74c-2-2.39-5.62,6.94-4.5-.41C772.22,183.24,771.72,179.75,775.12,183.65Zm-18.74-6c.55,2,3,4.64-3.43,0C755.78,179.15,753.58,176.16,756.38,177.64Zm26.47,10.58c5.11,2.63,4.16,7.07-1.89-2.57C780,186.48,788,186.07,782.85,188.22ZM652,137.42c2.24.48-1.48-3,1.46-2.21C655.2,138,654.84,140.7,652,137.42Zm96.15,44.83c.52-1.17.32-3,2.06-3.05C752.14,182.61,749.55,181.92,748.12,182.25Zm-18.93-4c1.67-.1,1.42-2,4.43-.85C735.1,180.2,731,180.13,729.19,178.27ZM647,141.38c-.65,1.26-2.72,1.05-4.3,1.31C641.3,139.5,643.28,136.69,647,141.38Zm141.11,69.43c-11.26-4.49-12.19-22.38,7.83-3.26C787,203.25,802.55,213.72,788.07,210.81Zm-27.4-11c6.63,5.13-18.25,3.37-5.7-.1C746.94,181.75,749.44,193.21,760.67,199.79ZM641.45,145.6c-1.84-2.65-1.69-3.87.44-3.31C642.28,144,641.73,144.62,641.45,145.6ZM800.29,211c-.74-1.49-3-1.47-3.55-3.16C797.17,206,802.43,210.7,800.29,211Zm-52-13.8c1.25-.37-4.66-3.92-.46-6.05C749.31,192.66,750.66,194.23,748.33,197.21ZM638.49,145.86h0C638.3,145.49,633,143.58,638.49,145.86Zm61.22,33.07c-4-1.49-3.35-5.13-1.06-4.27C700.2,177.27,698.17,176.31,699.71,178.93Zm81.64,29.56c-.45.54-4-.79-4.85-3C778.52,206.09,780.5,206.75,781.35,208.49Zm-141-58.09c-.75-.74-.69-1.34-1.72.3C637.2,149.84,640.46,145.72,640.31,150.4Zm11,10.5c2.68,1.43-.35-3.28,2.39-1.77C654.85,161.59,653.9,164,651.27,160.9Zm174.36,71.79c-2.1-2.75-2.18,0-.18,1.29C822.75,236.66,820,221.92,825.63,232.69ZM682.87,190.47c-1-2.14.11-1.95,2.25-.72C686.14,191.9,685,191.71,682.87,190.47ZM614.8,155.4c-2.73-1-4.37-5.25-1.18-3.05C614.36,154.39,615.5,154.58,614.8,155.4ZM676,190.7c1.19,3.25-1.92,4.18-5.28,1C676,194.93,670.21,186.49,676,190.7Zm116,55.62c1.51.31,3.71-1.26,5.67,1.25C798,249,793.63,248.58,792,246.32Zm-55.24-10.73c-1.23-2.64-1.81-5.68,0,0C733.2,236,725,229,736.72,235.59ZM625.91,181.4c.55,1.43-7.35-6.3-2.41-4C625.5,178,627.52,178.13,625.91,181.4Zm140.57,78.89c-.78-2.94-1.24-5.55.6-5.66C767.91,257.5,769.67,261.52,766.48,260.29Zm-72.64-35.62c-1-2.15.16-2,2.29-.71C697.12,226.11,696,225.93,693.84,224.67Zm27.94,16.57c-.73-2.53-.8-4.3,2.26-2.72C724.7,241,722.9,240.72,721.78,241.24Zm-16.25-5.6c-2.64-2.43-4.48,7.25-4.93-1.19C703.6,233.79,702.46,227.54,705.53,235.64ZM645.9,208.77c-1-3.38.49-4,2.11-4.4C649.19,207.94,647.47,208.29,645.9,208.77Zm118.37,62.62c-.49-2.11,0,0,1.41-3.22C764.12,267.92,776.1,278.74,764.27,271.39Zm2.78-6.43c1.57,4.41,4.24-4.25,5.57,4.91C771.61,273.85,771.13,275.44,767.05,265Zm-7.93,1.42c7.61-1.45,2.81,7.14-3.4-2.94C757,261.19,758.19,260,759.12,266.38ZM710,246.15c1.78.7.49-2,3.1-.35C714.28,248.1,711.26,248.13,710,246.15Zm3-2.29c.51,1.93,3.28,2.14,3.49,4.3C714.44,248,711.24,243.7,713,243.86ZM697.07,237c-2.06-1.74-3.41-2.39,0,0C699.58,243.66,687.55,238.54,697.07,237Zm-116.2-58.76c-1.64-3.11.38-2.73-2-5.36C582,174.81,582.14,173.27,580.87,178.26Zm178.6,92.83c.56-.85,1.88-.87,4-.06C765.69,274.62,760.16,272.26,759.47,271.09ZM604,194.88q-.47-3.23,2.92-2C607.2,195,606.21,195.67,604,194.88Zm141.6,79.89c6.56-4.22-7.37-8.73,3.61-4.72C749.89,272.72,750.32,275.07,745.55,274.77ZM630.12,211.24c-.73.28-.83,1-3.72,1.64C625.76,210.75,625.6,205.11,630.12,211.24Zm66.53,38.82c-.68.18-1.73-.07-3.63-1.27C691.24,245.55,695.75,247.71,696.65,250.06Zm44.46,27.06c-.34-1.07,0,0-1.62-2.75C738.62,273.83,746.93,276.25,741.11,277.12Zm-50.58-24.58c.58-.75-2-5.09.69-3.43C692.1,251.49,691.91,252.69,690.53,252.54Zm-16.25-4.87c-.91-2.15.58,1-.88-4.23C675,244.66,680.07,247.76,674.28,247.67Zm6.57-2.76c-3.21-1.77.09,3.8-4.06,1C674.6,241.85,678.16,241.92,680.85,244.91Zm50.24,27.85c-2.08-3.57,1-1.38,3.14-.36C735.35,274.91,732.2,272.72,731.09,272.76Zm-46.21-20.07c-1.46-2.88.71-1.68,1-2.61C688.29,252.81,687.49,254.28,684.88,252.69Zm1.18,6.92c-2.53-7.76-5.42-11.56,3.35.52C692.24,266.28,674.64,250.93,686.06,259.61Zm-9.55-3.85c-.39-3.52,1.56-4.42,4-4.77C685.24,256.75,679.9,256.45,676.51,255.76Zm71.86,34.67c.35-2,2.94-1.59,4.46-2.35C752.68,290.34,752,292,748.37,290.43Zm-23.72-11.94c-1.31-1.63-3.91-4.68-1.36-3.89C723.91,275.3,726.42,279.23,724.65,278.49Zm14,12.26c-1.77-4-10.3-2.26-2.44-7.05C737,285.08,736.85,284.82,738.65,290.75ZM668.22,250c1.62,4.84-5,.59-7.46-3.43C663.6,248.42,664.49,249.72,668.22,250Zm6.56,7.91c1.11.93-4.11-6.18,1.23-1.83C675.32,256,675.2,256.48,674.78,257.94Zm35.34,21.34h0C710.26,280,705.09,275.22,710.12,279.28Zm16.48,10.47a15,15,0,0,1-5.53-6.69C724.18,284.3,727.32,288.76,726.6,289.75Zm-44.8-26.13c1.69,3.28-2.51.86-4.1-1C676.5,259,679.09,262.58,681.8,263.62Zm41,29.91c-2.31-1-2.52.17-3.19-5.48C722.74,291.44,727.42,287.77,722.75,293.53Zm-12.45-.79c5.24,3,3.41-4.67,8-.88C716.58,292.68,715.78,299.34,710.3,292.74Zm1.54-1.09c-.15-1.4.22-3.08,0,0C713.63,291.82,705.93,287,711.84,291.65Zm-7.37,8.12c-2.58-1.87,0,0-3.33-.54C701.27,297.92,701.57,294.78,704.47,299.77Zm-56.81-23.92c.6-.88.73-5.35,4.26-.07C649,273.73,649.81,278.46,647.66,275.85Zm3.34,2.49c-1-.71.87-3.4,4.09,2.67C655.6,283,656.85,283.64,651,278.34Zm3.93,5.9c-2.69-.83-5.34-5.85-2.89-4.7C653.23,280.94,654.72,282.16,654.93,284.24Zm34.6,21.15c-1.34-.79-1.93-1.37-3.81-.23C685.32,303.57,688.35,297.38,689.53,305.39ZM659.1,289,658,286C658.38,286.32,663.21,288.93,659.1,289Zm-14.79-9c1.39,3.9-2.83-1.25-4.52-.72C639.74,277.79,642.22,277.8,644.31,280.07Zm-5.77-.83c-3-4-1.12-3.07,0,0C638.87,280.3,631.32,273.41,638.54,279.24Zm13.05,9.22c-5.1,2.88-13-11.44-4.32-1.84C648.06,284.53,647.9,280.73,651.59,288.46Zm30.67,19.09c-.87-2.52-2.25-5.62.38-4.11C682.65,305,684.74,308.89,682.26,307.55Zm-60.41-36c-.38-1,0,0-1.12-3.06C622.19,269.57,624.91,270.77,621.85,271.59Zm5.38,19.24c2.14-2.53,13.8,8.2,11.38-9.73,2.81,8-.73,29.18-8.81,11.8C633.22,297,626.48,298.1,627.23,290.83Zm4.31,6.61c1.18,1.31,0,0,1,4.1C631.57,299.31,625.57,300.18,631.54,297.44Zm49.67,8.91c-.54,1.65-2.13,2.1-4.22,2C677.11,306.3,677.91,303.23,681.21,306.35ZM653,292.29c1.08.34-.21-2,2.51.19C657.83,295.85,653.89,294.15,653,292.29Zm-6.14,1.35c-.88-2.07.16-4.2,2.68-.9C647.93,292.26,648.4,294.13,646.83,293.64Zm28.49,16.77c-1.55-1.78-1.5-4,.91-2.54C677.46,310.49,676.41,310.47,675.32,310.41Zm-35.47-13c.16-.87,0-4.3,2.66-.86C641.22,296.41,642.07,298.68,639.85,297.45Zm20.69,15.46c-1-2.13-.94-3.13,1.15-1.76C662.64,313.28,662.62,314.28,660.54,312.91Zm-36.07-15.39c-.83.18,0,0-1.83,1.27C622.48,297.45,619.05,291,624.47,297.52Zm-9.57-2c-2.76-4.47-3.43-7.22,0,0C612.87,295.16,605.56,286.61,614.9,295.54Zm12.24,8.75c.5-1-4,.25-2-3.92C627.4,300.8,629.57,300.82,627.14,304.29Zm-19-6.86c.82-.66,2.84,1.22,4.1,2.91-1-3.92,2.93-4.66,7.85-.7-4.36-1.31-5.07,1.86-4.36,5a15.83,15.83,0,0,0-4.71-4.41c1.67,1.67,2.46,6.1-1.35,1C611.82,308.57,606.19,304.62,608.09,297.43Zm62.57,39.08c-1.91.29.65,9.56-3.92-1.13C670.79,339.93,662.74,328.45,670.66,336.51Zm-52.55-28.79c-.07-1.8-5,3.59-4.09-2.9C614.41,305.25,614.72,305.24,618.11,307.72Zm36,24.86c-1.43-1.55-3.13-5.24-1.08-4C653.12,329.6,655.71,333.47,654.1,332.58Zm11.85,11c.73-3.18-5.77-5.37-2.41-7.11C667.25,337.59,668.57,341.08,666,343.54ZM607.48,305.6c-2.94-2.5-.42,2.92-3.16-.66C604.34,303.85,604.86,301.56,607.48,305.6Zm24.32,18.48c.1-1.49,1.32-1.72,1.58-3C634.79,322.75,634.51,326.94,631.8,324.08Zm27.74,16.24c1.06-1,.9-.45,0,0C656.33,338.12,660.86,336.37,659.54,340.32Zm-61.4-26c2.64-2.77-.75-18.73,10.34-1.71C600.88,307.43,602.83,315.05,598.14,314.36Zm56,27.79c0-2.28,0,0,3.93-2.72C658.39,341.76,659.42,341.27,654.1,342.15ZM576.36,298c1.18-.54,2.48-3.36,5.62-.2C579.66,297.11,580.25,302.05,576.36,298Zm13.1,10c-3.48.3-10.74-1.74-.83-2.33C587.48,305.25,588.7,307.09,589.46,308Zm64,36.49c.8-.9-.09-2.8,0,0C655.08,343.94,647.75,342.38,653.44,344.5Zm-5.6,1c-1.45-2.83-.56-3.07,1-2.62C648.7,344,649.79,346.41,647.84,345.51Zm-51.73-29.64c2,2.59-2.78,2.43-7.31-4.41C592.62,314.34,589.73,312.75,596.11,315.87Zm61.27,36.42c-2.81-3.8-5-5.13,0,0C647,350.6,657.63,352.68,657.38,352.29ZM645,347.52c-.66-3.29,2.06-1.44,0,0C642.69,346.09,643.44,341.39,645,347.52ZM586.38,321c1.31-.76-.42-8.81,4.1-3C586.88,316.51,590.25,322.83,586.38,321Zm-16.06-4.11c-.37-1.68-.35-2.91,1-2.63C572.88,316,572.78,318.32,570.32,316.89Zm5.48,6.76c2.73.2,2.61-7.13,8-.84C579.49,320.92,579.67,326.64,575.8,323.65Zm-21.93-8.76c-1.18-2.65-.1-2.64,1-2.6C556.54,314.2,555.72,315.65,553.87,314.89Zm9.56,7.79c-1.77-2.61-2.08-4.3,0,0C558.39,320.62,550.9,321.92,563.43,322.68Zm1.55,2.76c-3.76-1.09.93,9.23-4.13-1C561.31,323.87,561.76,323.2,565,325.44Zm-9.82,4.78c-1.31-3-.65-3.66.79-3.39C557.81,329.06,558.59,332.77,555.16,330.22Zm56.34,33c-1.9-3.84.6-2.61,1.61-3.1C612.78,361.37,613.62,364,611.5,363.19Zm2.62,2c-1.06-2.23,1.33-3,3.17-.32C615.28,363.89,617.54,367.82,614.12,365.2Zm-9.71-3.75c1.8-1.11-5.61-1-2.32-5.13C602.57,357.53,603.35,358.76,604.41,361.45Zm11.17,12.43c2.06-.75-11.45-7.55-5.91-12.29C610.24,364.58,617.38,372.41,615.58,373.88Zm-11.79-6.19c-.88-2.18-.79-3.24,1.36-1.91C606,368,605.92,369,603.79,367.69Zm-48,37.3c-.28-2.08.63-2.65,2.75-1.69C559.87,406.69,557.8,405.8,555.8,405Zm-2,6.82c3.28,7.53-4.88,10.28-4.53-3.13C549.06,405.2,566,411.88,553.82,411.81Zm3.23,7.28c-.37-3.1,1.25-3.64,2.67-4.45C559.78,417.33,560.05,420.3,557.05,419.09Zm-3,5.53c-2.42-2.38-2.62-.74-2.24-6C555.43,421.64,554.14,422.85,554.05,424.62Zm-10.56-3.75c-2.48-2-.2,2.18-3.36-.72C539.83,418.29,542.33,417.82,543.49,420.87Zm12.85,12.49c.45.59-5.31-3.77-1.39-2.85C555.41,429.6,555.22,428.7,556.34,433.36ZM534.61,428c-.48-2.26-.5-4.28,0,0C532.88,432.32,524.1,426.46,534.61,428Zm-9,1.64c-.79-.76-1-1.27,0,0C526.94,431.26,519,429.94,525.62,429.66Zm-3.36,11c-5.25-.65-3.65,2.83-7.74-8.26A82,82,0,0,1,522.26,440.69Zm-8,.09c-3.38-2,0,0-7-7.79C511.28,435.45,508.23,433,514.22,440.78Zm-2.06,3.89c-1.16.74,6-5.88,2.76,1.15C514.59,445.68,514.31,443.78,512.16,444.67Zm-4-1.33c2.28-1,4.14-.53,0,0C503.79,441.7,506.7,430.89,508.14,443.34Zm3.35,8.05c-1.53-2.39-2.19-6,0,0C508.77,451.34,504.33,444.56,511.49,451.39Zm-10.34-6.8c.29,2.09-1.86.88-2.66,1.5C497,442.41,498.27,440.85,501.15,444.59Zm-2,8.35c.11,1.28-4.61,1.6-.73-.49C497.69,451.81,495.49,449.22,499.12,452.94Zm-9.3-1.1c1.86.85.94-2,3.55-.18C493.92,453.76,492,455,489.82,451.84Zm-.42-1.56c-1.2.72,0,1.86-3.67-2.46C487.6,448.5,487,446.86,489.4,450.28ZM483,453c-1-3.88.68-4.31,3.18-3.59C486.86,453,483.39,451,483,453Zm4.43,7.43c-2.8-4.73-.78-5,1-5.05C489.34,458.84,489.78,461.49,487.4,460.41Zm-12.52-4.72c-1.06-.92,0,0-3.13-2.75C471.18,451.4,475.3,447.16,474.88,455.69Zm-7.58,17.73c-1.05-1.79.24-1.05,0,0C466.41,471.45,460.82,469.31,467.3,473.42ZM367.06,544.84c-2.9,1.33-7.54-8.4-1.46-5.5C365.48,540.39,364.91,540.68,367.06,544.84Zm-10.86,1.48c3.4,2.49.87-3.73,4.65,1.95C359.13,547.1,358.5,549.87,356.2,546.32ZM121.53,423.94c-2.38-3.84-1.36-1.09-5.75-7.6C118.06,418.72,120.49,420.82,121.53,423.94Zm-4.85-7.81c3.36,4.65,5.27,6.91,0,0C116.83,415.25,113.06,409.48,116.68,416.13ZM336.91,566c.67,2.19,0,0-1.63,1.81C334.68,568.12,331.51,558.3,336.91,566ZM120.46,425c-1.83-2.07-3.19-4.26-4.82-6.4C117.45,419.61,116.16,418,120.46,425ZM330.54,566.87c2.07.55-1.46-3.46.91-2.31C332.77,565.86,333.48,571.24,330.54,566.87ZM119.68,424.38c.87,1.56,0,0-.61.13C118.41,423.25,116.33,420.11,119.68,424.38Zm144.75,213c3,1.25,1.76-3.88,4.33-3.25C269.79,638.37,266.52,640.89,264.43,637.37Zm-6.21,5c2.37-.88,3.5-3.69,7-2.71C264.79,643.43,262.6,644.76,258.22,642.32Zm-1.11,4.9c.05-1.2,0,0,.17-3.58C258.88,644.8,262.32,646.57,257.11,647.22ZM98.82,570.69c.06,1.62-7-12.72,2.76-11C101.47,561.93,101.48,563.86,98.82,570.69Zm-7.62,2.68c-1.13-1.31,0,0-2.47-4.17C91,568.06,95.78,560.6,91.2,573.37ZM196.46,686.86c-1-2.9.08-6.57,2-5.4C198.88,685.67,197.37,685.65,196.46,686.86ZM85.6,582.8c2.59.81-2.7-16,3.2-10.44C88.31,574.07,88.93,580,85.6,582.8Zm98.68,132.87c1,7.5-10.41-10.43-3.1-8.83C180.27,707.56,179.72,708.58,184.28,715.67ZM63.6,587.52c.39-2.27.22-4.17,0,0C64.23,588.48,57.61,580.82,63.6,587.52Zm38.91,54.07c-2-2.34,3.82,11.75-1.27,1.94C100.88,643.81,97.07,632.24,102.51,641.59ZM143.68,707c1.5,2,.1-2.46,2,.33C146.64,710.61,144.57,709.85,143.68,707Zm-6.35,1.46c0-2.52.17-4.91,2.31-2.9C138.67,706.13,139.51,710.62,137.33,708.48Zm-4.53-.6c-.24-1.49-.48-3,1.47-.29C134.53,709.43,134.1,709.5,132.8,707.88ZM140.08,722c-1.54-2.18-1.71-2.14-.64.12C137.89,721.53,138.77,716.58,140.08,722ZM99.44,706.72c-1.74-2.32-2-4.36-1.32-4.54C99.38,703.9,101.36,708.29,99.44,706.72Z"/></clipPath><clipPath id="clip-path-3"><path class="cls-2" d="M585.78,388.38a8.05,8.05,0,0,0-1.78-.52l1.39-.44A2.82,2.82,0,0,1,585.78,388.38ZM146,671c3,.28,2.54-13.22,8.44-7.69-2-8.93,9.8-12,13.63-9.4-1.29-4.83,9.8-14.59,18.84-17.48-3,1.59,10.72,2.9,7.57-1.59-2.2-12.53,18.91-3.39,19.35-8.13-12.14-10.12,12.3-14.31,11.82-8.2.48-16.57,3.91-1.2,10.15-14.51,4.07,9.36,8.58-7.58,3.21.75-4.35-2.43,4.12-8.43,6.16-2.79,7-4.46.66-12,5.93-5.35-1.82-10.45,44.58-21.87,44-35.41,20.92-7.56,52.09-32.21,66.51-34.54,2.8-11,35.71-17.61,27.26-19.09,8.87-6.49,18.41-14.15,25.5-16.92-6.13,2.71-.65,8.66,1.94,2.16,1.47-14.7,14.73-13.19,23.25-19.29,6.51,13.06.71-1.25,10.93-1.28,9.31.36-6.74-2.51,9-8.4,13.1-13.45,28.39-11.53,21.44-16.39a31.31,31.31,0,0,0,19-8.36c-.45-1.2-.31-1.79,1.08-1a71.91,71.91,0,0,0,5-5.25,3.69,3.69,0,0,0,1.36,2.18c.73-.63,1.8-.74,3.21.06,0,.07.05.14.07.21a27,27,0,0,1,3.53-.75c.11-2.14.26-4.69.47-7.7,7,4.09,10.63,8.17,8.56,4.46-1.73-.85-4.09-1.84-2.7-4.42l-.13-.2.23,0c1-1.76,3.77-4.22,9.51-7.83.6,1.54-.5,2.7.29,4.28,1.4-8.32,18.21-4.2,7.88-10,.72-8.53,6.84-1,6.45,1.44,1.77-.9,3.84-4.2,5-.54,8.92-8.15,6.53-.88,10.2-2.2a8,8,0,0,1,1.5-3.4,2.45,2.45,0,0,0,1.84,1.17,86.14,86.14,0,0,0,6.94-7c-11.31-1.56,0-3.24,2.93-3.56,3.45-9.73,7.36-11.75,10.82-11.16-2.25.69-4.2,1.49-1.74,4.76,2-1.22,3.88-2.48,3.52-4.24,5.32,2.19,9,8.91,7.18-1.8a23.83,23.83,0,0,0,6.89.24c4.37-4.44,9-9.22,9-10.46l.62,0c.86-2.49,1.53-4.15,5.81-2.47-.44.77-.84,1.48-1.21,2.15,1-.11,2-.26,2.9-.43a5.61,5.61,0,0,0-.77-2.37c5.69-3.71,15.55-8.06,21.32-12.35a3.08,3.08,0,0,0-.09-2.37c1.05.21,1.1-.76,2.72.11,1.63-1.7,2.37-3.36,1.68-4.95.8.08,2.32-.48,4.32-1.49,7.68-11.72,12.65-18.67,21.83-14.8.85-.66,1.69-1.33,2.51-2-1.34-2.65,0-2.39,1.93-1.59l.77-.66c-7.78-6.23,12.49-2.47-8.54-8.39,5.59-1.49,10.41,2.17,13.33,4.14,1-.89,1.84-1.76,2.65-2.59-.13-.68-.29-1.46-.51-2.37a8.23,8.23,0,0,0,1.75,1.06,30.5,30.5,0,0,0,2.07-2.48,10.72,10.72,0,0,0,.49,2.29c.5-.78.13-2.24-1.34-3.65a38.92,38.92,0,0,0,6.22,1.18c1.23-1.94,2.3-3.89,2.75-3.84,1.56-1.33,2.91-2.4,4.1-3.26,1-1.8,2.84-3.54,7-4.73,3.59-10.05,25.07-9.63,16-17.82,4.06-1.11,5.95,5.28,1-6.9,9.45,10.55,10.89,10.44,9.07,5.12-10.23-3,2-9.28,1.78-11.71,18.11,20.17-.57-11.64,9.94,2.51,5.65,10.58,4.94-16.84,9.58-2.58A64.59,64.59,0,0,1,754,266.35c.76-.21,2.24.39,1.48-1.54-.27-.11-.53-.2-.76-.27,9.68-23.22,30.43-36.94,33.23-34.18.4-21.59,23.76-31.54,31-36.35-2.48,14.29,5.08,4.25,4-1,10.06-19.4,21.72-13.53,7-21.93,33.12,2.5,16-12.75,33.42-20.86,7,34,23.13-29.39,6.31-4.42-6.95,20.88,1.8-21,11.17-18.06,1.46-16.74,2.91-24.16,7.74-15.26,5,26.22,8.88,7.56,16.85-4,5.92,5.49,11.29,8.7,9.71,3.71,6.24,12.28,2.94,3.15,6.11,8.5-.3.31-1.17-.5.38.67l-.38-.67c.17-.18.13-.79-.84-2.56a17.09,17.09,0,0,0,1.59,2.33c.25.31.46.63.69,1,.46.66,1.5,1.34,1.34,2.25-.07.38-.39.57-.4.89,0,1.25,1.23,2.64,1,3.85a3.52,3.52,0,0,1-1.27-1.49c1.51,4.55,1.76,5.3,1.63,7.24,1.38,2.62,2.19,2,1.84.29.2.54,1.63,5,2.23,2.89a16.36,16.36,0,0,1,.4-2,1.94,1.94,0,0,0,.25-1.63,6.62,6.62,0,0,1-.52-1.85c0-.2.19-.41.2-.66a8.25,8.25,0,0,0-.54-2.09,3.43,3.43,0,0,1-.05-1.62c.55,0,.08-.69.11-1.07,0,.61.89.35.92-.32a4.3,4.3,0,0,0-.34-1.31c-.42-1.3-.94-2.57-1.47-3.83s-1.09-2.5-1.72-3.71c-.26-.5-.65-1.63-1.2-1.91.53.42.86.6,1,.55,7.37,12.25,4.94,6.8,4.25-4.41,17.48,34.65,1.44-8,12.54,1.31-1.31-3.65,4.14,4.39,5.77,3.76-.79-1.6.15-1.1-2-3.16,1.12,3.46-2.14-4.21-2.81-5.12,20.47,17.15,25.82,23.48,28.67,27-6.83-6.92-5.14-5.27-8-8.18,22.9,25.51-20.64,78,4.42,70.52,48.08,5.41,14.49,53.62,8.32,57.94-.1-.56-.2-1.16-.32-1.86-1,2.09-.7,2.57.32,1.86,2,11.35,1.34-3.81,6.71,8.56,44.34-73.85,51.73,15.5,17.84,53.81-29.18,55.48-50.26,54.28-38.55,73.19-1.63-2.64-10.44,6.27-11.19,7.58-2.32,4.07-2.39,9.21-2,13.88.3,3.66,3.24,9.58,2.21,13a6.88,6.88,0,0,1-.94,1.85c-.21-.43-.66-1.25-1.47-2.64-3.4-4.39-5.33-6.5,0,0a8.11,8.11,0,0,0,1.37,2.76c-3.08,4.24-11.07,7.65-14.21,11.11-2.41,2.65-2.27,6.2-5.25,8.45-3.63,2.73-8.12.91-11.09,4.18s-1.2,6.11-3,9.64c-3.09,6.08-12.45,11.7-17.42,15.89-2.23,1.87-5.32,5.32-8.27,5.93-5.36,1.12-4.29-2.5-6.47-2.8-5.66-.78-5.15,1.68-9.47,7.13-5,6.29-11.35,11.85-17.09,17.44C836,526.68,811.29,547,786.58,567.25c-29.78,24.44-58.1,50.4-87.55,74.57q-27.12,22.26-54.32,44.41c-16.53,13.4-33.1,26.8-49.89,39.92-.15.32-.33.48-.54.43l-5,3.86c-1.25,3.55-.51,3.93-7.51,8.23.19-1.73.51-2.15.25-2.63l-3.15,2.41a3.46,3.46,0,0,0,.87,3.14,5.44,5.44,0,0,0-2.85-1.63q-10.29,7.81-20.73,15.44c-.74,1.83-2.81,4.06-10.62,7.64l-1.46,1c3,1.87-1.54,11-6.3,6.92,2.24-2.94,2.6-4,2-3.9l-2,1.42-2.95,2c-2.83,2.42-5,4.7-.86,1.51,4.38,8.83-4.13,9.59-10,5.84q-3,2-6.11,4c-4.58,10.9-17.27,17.12-17.12,12-22-1,7.91,7-5.91,7.12.31,9.58-7.81,4.49-10.75,6,3.42.63,6.35,4.45,6.24,3.11,4.17,2.63-23,14.22-36.1,28.17.09-1.39-.6-3-1.88-4.67-2,11.81-22.76,18.31-26.5,24.43a7.88,7.88,0,0,0,4.15.09c-14.62,13.73-29.93,18.52-46.08,33.48.33-14.12-18,23.75-29.7,10.14-6.6,4.53-2.67,6.76-9,4.71,11.91,13-4.83.51-17.51,12.07,10.61.6-5.57,12-8.28,13.45-3.77,2.06-7.76,2.86-11.18,5.08-6.06,3.94-7.88,7-15.84,6.42-7.77-.55-14.16,2.53-19.65,7.82-3,2.89-6.65,5.13-9.78,7.91-3.74,3.34-5.76,7.61-8.82,10.82-2.61-1.59-5.11-3.35-7.71-4.95,2,5.21-.05,11.51-4.42,15.44-6.73,6.07-12.86-.79-20.63-.45.55,1.82,1.08,3.83,2.48,5.27-.14-.38-.9-1-1.17-1.27a11.41,11.41,0,0,1,3.39-.94c-2.19,2.41-5.13,4.67-6.8,7.3-.66-2.51-1.74-4.7-4-5.82-1.59.1-3.65-1-5.22-2.65a15.64,15.64,0,0,0-1.22,1.92c-2.26-1.82-2.84-2.1-4.14-.22-2.06-1.84-4.14-2-4.55,1.35a20.5,20.5,0,0,0-2.31-.7c-3.22,14.19-21.75-.14-14.22-8.19-2.07-.53-3.88.68-6.47.37-5.44-.65-5.28-4.27-9.69-.61-3.39,2.81-4.1,8.3-9.73,5.58-.58.89-7.23,7.49-7.73,6.66-12.94-21.59-24.57-32.55-28-56.21-4,3.59-5.25,7.88-9.11,11.59-3.39-20.13-31.91-36.19-13.61-46.48-.65-3.63,4.57-1.15,6-1-12.63-36.13-15.74,22-24-35.62-30.44,4.61-33.58-17.8-6.12-34-4.61-2.7.23-8.54,4.57-8.88-7-1.64-8.38-9.54-16.52-5.23,4.68,1.44-6.16,5.64-1.37,15.52-15.79,5.5-6.33-9.18-6.73-16.08,2,1.62,4.85-3.53,6.74-1.49-3.38-16.7,1.54.51,7.15-1.22,10.57.06-.41-18.62,4.6-24.18-10.26,1.21-1.43,7.87-12,3.56-10.75-29.75,9.61-65,8.71-33.79,6.17,1,6.42-1.42,3.84-4.06,7.45,2,.06-8.44,5.87-6.92-4.24-3.6-3.11-5-.5-8.53-40.62,24,55.31-58,60-66.17C147.72,683.5,137.36,662.89,146,671ZM950.72,424.39c-4.45-6.16-3.39-3.52-5.81-7.16C946,420.24,948.42,422.17,950.72,424.39Zm-4-7.7c3.38,4,1.27,1,.6-.16C946.72,416.69,945.83,415.21,946.72,416.69Zm-.78-.53c4.38,6.59,3.07,5.1,4.88,6C949.17,420.18,947.78,418.1,945.94,416.16ZM877.42,133.87c4.63,6.71,4.11,7.75,3.22,8.5C887.88,143.54,876.28,126.54,877.42,133.87Zm-70.56,74.9c.11-3.54.07-2.35.11-3.54C801.84,206.17,805.26,207.71,806.86,208.77Zm-6.92,6.56c-2.13-3.34-5.3-.68-4.2,3.43C798.28,219.25,797,214.26,799.94,215.33Zm6-5.22c-4.37-2.15-6.5-.72-6.91,3.06C802.59,213.94,803.65,211.11,806,210.11ZM625.81,372.76l.48-.25c0-.13,0-.26,0-.4A3.66,3.66,0,0,1,625.81,372.76ZM277.63,877.29c-4.37-7.16-7.13,1.52-6,1.14C276.05,880.64,275.41,876.55,277.63,877.29Zm-97.87,79.77c5-1.64,9.57-1.87,10.12-5.28C183.08,948.68,179.44,953.22,179.76,957.06ZM269.34,883c-2.44-4.42-5.93-1.26-9-1.25C263,884.92,266.21,883.65,269.34,883ZM500,785.36a4.91,4.91,0,0,0-.87-1.28,5.33,5.33,0,0,0-1-.5l-.65.22c-.12.4.06,1.08-.53,1s.11.43.9.77A7.5,7.5,0,0,0,500,785.36Zm-16.92,6.38a4.14,4.14,0,0,0,1.39.14,2,2,0,0,1-.15-1.53C483,790,482.45,790.59,483.05,791.74ZM311.8,895.38c1.6,2.61,3.21,5,5.33,3.77C317.42,897.54,314.39,893.38,311.8,895.38ZM691.62,325a4,4,0,0,1,1.33.78,12.2,12.2,0,0,0-.75-1.28C692,324.61,691.81,324.77,691.62,325ZM87.84,819.68c8.15-20,2.21-4.77-5-5.49C86.06,817.26,84,821,87.84,819.68Zm13-10.16c2.79,4.42-5,1.36-4.11,5.71C100.29,817,107.17,811.5,100.85,809.52Zm1.36,7.93c.19,4.49,3,12.58,3.84,19.53C114.09,838.06,105.67,823.54,102.21,817.45Zm-6.33,56.16c-3.3-1.32-1.46,7-5.76,3.19C95.14,883.71,95.93,877.15,95.88,873.61ZM121.61,925c-3.25-.57-5.91,4.23-6.36,7A8.86,8.86,0,0,0,121.61,925Zm10.3-.87c3,2.74-1.06,3.73-.16,6C141.49,932.32,138.82,923.63,131.91,924.09Zm9.72,12.67c-1.57-2.43-3.63-1.94-5-5.51.65,6.18-8.22,1.68-6.31,7C134.34,936.43,138.1,935.88,141.63,936.76Zm117.26-86.7c-4.16-3.33,5.83-7.73-4.61-2.78C255.6,849.76,257.12,850.92,258.89,850.06Zm-80.8,96.34c-.54-3.45,1.91-4.75-1.53-6.33C172.05,941.38,174.72,948.13,178.09,946.4ZM168.6,963c-4.42-1.11-7.93,8.62-11.58,7.59,6.3-7.51-.24-6.33-3.18-3.15C147.77,979.38,168.9,966.29,168.6,963Zm9.53-6.31c-2.59,3.39-8.27-.69-8.29,4C172.44,960.86,179.73,962,178.13,956.67Zm8.71,19.21c4.33-1.84,3-5,4.62-7.48-8.44-4.12-5.93-6-15.09-6.15-11.3,19.69,10.56-7.61.36,13,6.94-9.16,6.54,2.31,6,4.85,3.48-3.71,6.19-3.07,8.2,1.92C211.32,976.67,188.18,976.79,186.84,975.88Zm20.69,8.28c-1.55-2.63-3.32-3.89-5.31-3.82,2,2.2-4.7,2.34-.8,5C203.87,982.42,205.62,983.79,207.53,984.16Zm90-76c-2,.81-3.41-3.41-5.76-.5C292.71,911.64,298.32,911.61,297.53,908.18Zm12.24,2c9.37-5.12-3.1-5.15-4.39-4.42C308,909.38,308.84,909.71,309.77,910.17Zm-35.84,40.9c-8.13-10.36-3.28,3.07-3.95,4.18C273.31,952.84,273.56,952,273.93,951.07Zm3.51-12.77c2.54,2.29-4.87,2.26-2.33,4.55C286.93,946.73,284.27,944.31,277.44,938.3Zm38.58-19c8.89-1.69-2.15-10.8-5.19-6.64.48,8.06,9-7.85,3.82,10.55C316.67,922.21,315.54,920.54,316,919.25Zm2.78,4c-1.95,3.39-7.29,1.32-6.46,4.44C315.51,928.82,318.51,926.86,318.8,923.28Zm4.84-4.83c-6.41,2.52-1.74,9,2.56,5.68A8.67,8.67,0,0,0,323.64,918.45Zm34.14-15.84c9-9.37-4.63-6.73-9-3C354.12,898,357.1,898.39,357.78,902.61Zm17-10.53c-4.26-.23-7-1.33-6.23,2.81C370.92,894.62,376.51,897.31,374.76,892.08Zm96.79-77.76c-3.05-.71-3.6,3.46-.85,6.56C473.74,819.32,469.7,816.15,471.55,814.32Zm39.73-28.43c-1.83,1.09-3.69,2.14-5.55,3.16C507.65,790,510.46,788.12,511.28,785.89ZM998.84,253.14c-.34,2.26-.13,4.12,0,0C1004.87,259.39,998.2,252.23,998.84,253.14Zm-34.39,18.52c-2.48,6.86-2.44,8.76-2.5,11C971.64,283.78,964.36,270.06,964.45,271.66Zm10,.9c-2.51-4-1.37-2.73-2.51-4C967.64,281.41,972.22,273.81,974.42,272.56Zm2.15-12.81c-2.44,3.11-1.86,8.13-2.28,9.7,5,4.39,1.81-6.64,2.28-9.7a6.78,6.78,0,0,1,.68-.74C976.86,258.91,976.66,259.21,976.57,259.75ZM964.64,206.8c1.77,1.94,1.65-.59.57-2.57C962.68,201.77,964.37,204.44,964.64,206.8Zm-5.19-4.66c5.54,8.9,1.55-2.27,1.21-2C955.46,190.8,961.41,204.34,959.45,202.14Zm3.15-59.82c.63-.21.37-2.2-1.39-4.39C959.29,136.49,961.33,140.7,962.6,142.32ZM926.87,139c2,2.6,1.71,1.09,1.44-.37C927,137.13,926.58,137.22,926.87,139Zm-5.25,2.27c2.14,1.86,2.26-.49,2.21-3C921.64,136.33,922.56,140.7,921.62,141.29Zm-6-1.4c1.92,2.64.46-1.63,2,.21C916.67,137.37,914.62,136.74,915.63,139.89Zm5.24-14.67c1.39,5.21,2.16.29.62-.15C922.59,127.23,922.42,127.28,920.87,125.22Zm-56.8,43.08c2,1,3-2.64,1.9-5.43C865.1,164.11,863.61,164.18,864.07,168.3ZM735.29,290.67c2.36,1-1.2-2.75.86-2.33C733.16,284.21,734,289.46,735.29,290.67Zm-3.84-3c-1.56,1.88-2.26-.24-1.56,1.88C735.36,296.82,732,287.35,731.45,287.69Zm-24.82,20.64c3.84,5.37,1.22-.61,4.62,1.65C708.92,306.62,708.35,309.38,706.63,308.33Zm-5.8,4.2c2.28-.73,2.41.74,1.16,2.48a3.8,3.8,0,0,1,.14,2.36c6,2.52,1.28-6.79-1.56-5.33C700.67,312.21,700.75,312.37,700.83,312.53Zm-13,10.13a6.16,6.16,0,0,0,.65.91l.24-.35A4.7,4.7,0,0,1,687.8,322.66Zm-67.71,52.21a34.91,34.91,0,0,0,3.9-1.32C621.92,373.6,619.64,371.9,620.09,374.87Zm-84.65,47.72c1.52-.48,2.91.17,4.32.62.35-.39.68-.38,1.14.29a4,4,0,0,0,1.9-.1C541.06,421.29,535.25,418.24,535.44,422.59Zm-19.26,9.64c1.19,4.52,1,3.64,1.42,2.72C521.49,435.64,515.72,431.68,516.18,432.23ZM70.55,772.36c.36-1.92,2.82-1.37,3.62-2.43C67.46,766.08,67.64,772.57,70.55,772.36ZM177,649.24c1.2-1.69,6.19-2.47,4.76-4.78C179.54,645.36,175.09,645.61,177,649.24ZM414.41,490.63c.53-.21,1.06-.4,1.56-.55A11.25,11.25,0,0,0,414.41,490.63ZM636.48,358.14a2.9,2.9,0,0,0,.92.36A.92.92,0,0,0,636.48,358.14Zm-29.25,18.23c.54,0,1.07,0,1.59,0C608.81,376,608.34,375.93,607.23,376.37ZM730.4,278.49l.61.68A.85.85,0,0,0,730.4,278.49ZM943.72,108.13l.1.08C943.77,108.15,943.74,108.11,943.72,108.13Zm7.59,319.15-.1.12C951.45,427.73,951.56,427.8,951.31,427.28ZM753.59,267c0-.43.14-.6.41-.67.24-.61.47-1.21.72-1.81C753.22,264.1,752.58,264.61,753.59,267Z"/></clipPath><image id="image" width="3900" height="5215" xlink:href="Perergrine_Lazuli.jpg"/></defs><title>Swash</title><g id="Layer_4" data-name="Layer 4"><g class="cls-3"><use transform="translate(-112.74 -292.61) scale(0.36)" xlink:href="#image"/><g id="BotStroke"><path class="cls-4" d="M1102.71,281.56a223.19,223.19,0,0,1,69.2-117.83L116.54,934.68l260.68,361.89L1432,526a223.44,223.44,0,0,1-159.81,23.64C1151.38,522.43,1075.49,402.4,1102.71,281.56Z"/></g></g><path class="cls-5" d="M541.81,1043.22c4.53,16.4,2.24-1.2,7,2.24-2.76,9.85,9.33-1.84,6.33,7,7.09,1.25-.54-21.31,13.83-19.39-4.66,10.15,2.36,5.27,3.53-.18,3-5.73,2.3,7.85,6.86,4.58-6.29-20.57,2.09-16.51,3.58-10,1.79-11.59,13.54-12.68,20.09-20.45,0,1.54.09,3.08,1.5,2.38-1.88,5.48.57,4,.07,12.3,1.61-1.78.09-9.41,4.69-7.12-3.58-9.83,2.76-6.47,4.14-3.17.11-2.65,3-6.68,2.06-1.58,5.94-1.34,1.29-10.59-.06-12.3,10.43-1.27,5.41,11.49,10.16,18.68-.22-3.32,3.76-2.42,1.79.41,5-16.94,18.81-.61,4.88,12-1.16,5.09,19.91-7.72,12.73-13.1,4.84.43,8.73,7.47,14,5.21-8.16-2.49,2.26-12.46-6.54-5.57-10.9-3.26,1.1-11.29-3.28-2.8,6.94-.85,4.84-13.24,3.32-16.66,3.69-1.55,1.74-4.38,5.43-5.94-1.48,9.27,1.84,18.74,7.48,11.94-11.89-10,3.86-5.34,9.3-7.12,30.78-35.45-3.11,3.17,10.06-25.39,3.28,3,10,9,8.69,16.3,5-4.13,7.29-14.38,6.95-3.56,31.3-10.3-9.87-4.79,11.18-13.87,20,9.82,6-2.73.85-6,9.79,5.4,9.14-.43,6.18-4.75,2.52,1.21,7,2.71,7.7-2.36,3.44,8.67,5,3.85,2.53,1.59,1-1,5.32,3.54,3.84-1.19,7.92,5.53,10,21.15-1,13.1-8.42,7.68,13.93,13,3.74,6,14.18-3.66,9.79,2.36,20.26-6.72-3.34-.82-2.49.52-4-4,2.49,1.81,5.7-1.31,7.87,2.79-4.47-9.39,18.14-29.7,10.14-13.09,15.61-19.12,8,2.83,27.59-19.44-.24,4.84,12.11,3.35,9.75-4-16.16,5.79,13.8-11.73,2.66-4,10.09,11.63,14.38-10.64,5.8-16.7,16.31,8.62,37.07-10.4,30.29-12.72,7.93-25.49,4,11.76,9.76-4,9.76,4.08,7.83-7.17,10.59-10-.74,4.16,2,9,.66,8.35,1,5.78,24.06-20.71,43.81-30.27-1.47-.44-2.81-1.84-4-4,13,2.3,28.18-18.87,36-20.76a10.38,10.38,0,0,1-1.6,4.77c20.14-11.34,31.33-27,53.38-39.6-14.71-5.12,31.84-11.3,22.58-30,7.37-5.77,8.07-.42,8.53-8.42,8.51,18.66,2.49-5.31,19.6-15.29-4.69,15.59,24.16-7.42,24-13.38,1.3.25,6.94-1,3.38-4.42,8.21-.77,2.84,15.71,11.56,22.94-.63-19.45,4.65-58.13,6.81-32.3-6.52,2,2.93,4,4,.69,3.21,12.57,4.64,29.64,11.94,13.77-1.65-16.38-14.83-30.88.26-37-.68,14.23,20.09,32.81,8.46.56-8.6-12.55,5.24-12,10.88-15.26,7,8.29-7.85,1.11,2,22.23,3.79-1.07,5.83.23,6.65,5.45,1.39-1.27,2.81-2.51,3.87-1.28.45-7.59-5.4-21.28-3.8-28.06,11.47-16.69,21.35,42.63,22.51,15.78-15-46.2-8.71-74.53,14.8-9,6.59-8.53-14-48.27-4.53-48.35-8.75-30.22,14.62,6.57,17.67,19.47,18,18.76-9.44-62.18-17.15-57.65-2.77-48.83,18.47-1.37,21.33-4.82.57-11.21-1.16-18-7.48-21,2.16.29,4.68-1.85,7.27-4.26-17-23.18-23.55-40.73-46.56-53.85,5.34-3.16,10.28-2.94,15.68-5.9-19.38-11.71-24.3-50.53-42.4-33.63-3.48-2.16-3,4.76-3.48,6.51-32.11-28.49,29.1-9.43-27-41.23,17.18-33-4.66-45.27-32.54-20.19-.9-6.32-8.9-3.07-11,1.76,1.17-8.61-6.41-13.28,1.35-20.9-.42,5.91,8.34-4.84,16.58,4.48,12.12-15.9-6.89-10.81-13.84-13.95.87,2.86-5.63,4.16-4.29,7.12-15.85-10.36-.11,2-4.19,7.69-4.25,12.09-19-7.71-26.82-4.16,5.44-11.24,8.7,1.44,8.58-12.31-26.31-23.85-71-14.32-38.43-3.19-1.47,7.44-4.09,6.77-5.76,2.8-1,9.27-8.73-3.22-9.53,4-2-6.26-3.89-5.5-8.6-3.89,41.35-37.06-82.42,40.61-92.77,42.75,11.64,14.83-5.4-5-.59,8-.92,3.5-14.68-2.23-11.38,6.65-8.4-5.74-16.38,6.54-15.27,11.92-4.45-3.35-19.05,5.51-25.73,14.71,2.87-2.82-1.38,13.38-4.73,8-12-7.39-11.23,20.28-16.29,18.94-5.48-17.81-19.79,8.48-13.29,10.31-17.3-5.9-2.84,4-19.11,5.94,8,8.3-11.34,6.86-.55,4-.73-5.92-10.37,1.42-5.39,6-7.47,6.3-12.69-3.93-7.94,4.69-10-6.15-40.77,42.41-54.51,36.48-16.35,20.95-54.52,47-62.8,62.53-12.55-1.09-32.76,33.94-30.84,23.72-11.1,8.17-23.92,16.71-29.08,24.1,5.86-8.84,11,1,2.65,1.49-15.77-4-19.63,11.7-29.4,19,10.81,12.52-1.59.33-5.79,12-3.43,10.78.17-8.67-12.35,7-19.22,9.73-23.48,28-25.66,18.12-5.59,12.45-14.29,18.13-25.29,22.9,6.19,4.8-6.35,10.17-.2,14.28C453,798,474.1,761,446.86,784.11c1.33,1.29,3,.49,4.29,2-9.16-1.63-11.77,19.17-13.57,5.1-9.1-2.5-3.84,7.43-1.14,7.93-1.66,1.67-5.91,2.75-2.62,5.54-17.5,10.19,8.26,5.8-20.16,19,3-13.52-3.32-1.32-4.87,2-32.09.45-3.18,28.55-20.91,17.75-1.44,8.58-8.17,18.52-8.06,11.46-7.09,7.41-14.13-1.39-14.17,9.06,25.3-5.47,4.9,9-1,.79-9.71,8-25.3,27.19-30.66,21.67-1.46,5.61-36,31.44-49.35,36,9.82,5.36-7.13,6.3-7.48,7.72-20.41,12.76-5.5,13.25-.75,3.89-.47,1.2,8.95,13.17,4.59,12.37,7.36,10.24,6.35,4,13.83,7.06-7.26,19.41,8-13.86,14.87-.8C261.08,995.44,297,960,278.83,991c2.67,3.14,6.34-1.62,9.24-.3-3.91,2.37-6.58,11.76-6.1,12.15,8.52-8.91,30.47-2.11,17.71,5.43,2.12-16-23.77.61-17.56,8.87,16.29,6.9,15.49,20.47-8.19,31.8-2.81-23.63-1.41,5.09-11.78.48,7-3.42,7.27-10,2.43-5.52-2.56-17.09-3.76-6.27-14.34-8.23,6.37,5.65-.33,14.15,6.88,10.62-10.39,29.49-19.76,47.08,8.55,27.14-13.19-5.17,14.27-6.72,15.28-6.81-6.74-12,8.31-20.89,1.07-17-1.29,16.88,5,5.82,8.56,7.26,2.31-6.82-6.33-14.72,4.16-14.48,12.75-6,10.83,19.14,13.82,21.7,21.13-21.06-1.11-2.61.8-22.26,4.35,5.15,6.5,9.57,13.59,8.75-5.45,20.86,12.06-24.48,17.38-5l11-12.41c22.61-5.37-17.7-2.61-4.15-15.8,2.35,26.06,30.29-27.84,39.07-3.41-8,6.47-10.58,2.72-5.34-1.21-7.93-3.91-11.53,10.41-18.75,9,6.52,18,16.76-2.8,9.64,3.2,2.29-8.69,12.4.46,14.91-7.86-6.8,12.79-33.51,21.69-22,38l3.66,2.05c4.88,2.62,10.92,8.37,17,7.12,4.15-.86,3.35-4.1,6.65-6.23,6.18-4,16.09,1.72,22.85,1.29,2.72-.18,3.93-2.2,6.44-2.53,1.56-.2,3,1.35,4.56,1.41,1.26,0,2.31-1,3.18-1,7.49.09,6,1.27,9.38-5.2a79.61,79.61,0,0,1,10.77,5.78c1.12.74,3.75,3.79,5,3.76,4.48-.12,4.7-8.9,11.47-8.45,5.22.35,9.62,4.24,14.68,4.94,5.58.77,8.06-4.14,12.63-3.79s6.78,5.85,10.41,7.33c2.79,1.14,3.22.09,6.13-.63,3.66-.91,7.38-1.33,11.07-1.93,4.06-.67,5.61-5.72,9.75-5.75,1.52,0,3.42.27,4.92-.19,1.18-.35,1.69-1.34,2.46-2.19s1.93-2.8,2.06-2.76ZM398.48,833.47c-2.45,2.14-4.86,4-6.65,1.55C393.85,832.34,395.62,828.56,398.48,833.47Zm-106,151.83c-4.28,2.91-4.59-.22-9-1.68C290.88,981.2,292.52,982.34,292.47,985.3Zm-2.08,8.87c-2.22-12.61,10.25.52,13.61-.19C295.53,998.09,291.36,992.31,290.39,994.17Zm845.5-479.7c.74-3.94,6.78-5.11,9.82-4.55A10,10,0,0,1,1135.89,514.47Zm30.64,53.33c14.83-2.28-7.31,16.76-10.6,15.13.67-5.48,12.13-5.71,12.56-10.28C1158.17,576.93,1162.05,569.92,1166.53,567.8Zm-26.64-25.88c-1.86-2.73-.52-4.9-3.64-7.85,6.11,3.14,5.09-8.75,9.82-4.47C1142.53,533.46,1140.42,537.55,1139.89,541.92Zm-46.47-76.83c0-4.28,7.81,1.05,5.64-5.33C1104.14,468.17,1097.05,466.52,1093.42,465.09Zm37.37,60.8c1.6,4.5,4.28.24,6.21,2.14C1135.37,540,1127.5,533.6,1130.79,525.89Zm37,79.82c-5.24,2.53-5.68,5.87-1.36,10.11-13.82,21.23-4.24-5.15-4.64-7-3.66,4.23-6.4,1.48-9.61,2.37-.81-11.24-3.79-9.13-.18-19.64,24.93-5.24-12.16,9.11,13.24,5.47C1153,601.34,1165,605.34,1167.79,605.71Zm-14.72-22.25c-.89,3-2.69,11.8-7.54,7.9C1150.08,589.71,1148.19,581.65,1153.07,583.46ZM1037.43,427.09c1.85,4.86,6.53,4,3.63,7.84C1017.12,436.46,1035.23,435.59,1037.43,427.09Zm98.25,175.79c-.42-9,5.75-11.37,9.59-9.51C1141.53,598.45,1139.43,603.57,1135.68,602.88Zm26.2,32.76c-2.07-2.8-2.65-5.31-1.77-7.55,1.45,3.15,4.33-4.47,5.45,1C1161.58,630.78,1162.28,633.31,1161.88,635.64ZM1135,587.31c-3.35-2-5.69.34-5.91-4.21C1132.23,578.46,1138.11,584.14,1135,587.31ZM1032.89,450.48c4.55,1.95,11.77,8.25,18.58,12C1049.3,472.05,1037.75,456.79,1032.89,450.48Zm-7.63-4.65c3.42,4.91,3.44-5.19,7.56-2.47C1033.25,448.12,1024.72,453.82,1025.26,445.83Zm-30-45.88c-1.24-9.16,5.39-6.43,4-3.19C997.16,396.43,996.72,399.45,995.31,400ZM1100.62,698.6c-7.37-13.32,4.51-2.55,5.93-2.88C1102.7,698.58,1101.73,698.54,1100.62,698.6Zm-14.61-1c1.33,3.79,4.32-4.68,5.65-.89C1090.83,711.75,1089.42,707.78,1086,697.64Zm-53.77-30.78c-3.57-4.5,1.12-7.26,2.38-10.75C1036.84,660.34,1034.21,663.55,1032.24,666.86Zm-9.26,7.25c-5.6-7.77,4.48-7.54,3.62-6.39C1027.08,673.62,1023.13,671.29,1023,674.11Zm23.75,34.76c1.67-2-2.13-5.23,1.84-6.78C1052.27,704.7,1050,711.1,1046.73,708.87Zm-44.19-66.75c-1.74-6-10.36,3.65-1-6.35C1003.57,638.24,1004.16,640.43,1002.54,642.12ZM1053.62,739c4.29-.91,4.35-7.82,7.22-5.65C1060.68,737.44,1057.43,740.09,1053.62,739Zm-3-4.75c-5.37,9.5-10.26-6.66-4.72-8.51,8.12,3.69-11.77,7.22,9.32,8.47C1053.39,736.19,1052.13,734.24,1050.59,734.29Zm-6.81-10.67c-9.11,8.71-4-5.54-2.76-6.73C1043.69,721.3,1043.69,722.38,1043.78,723.62Zm7.69,24.2c-1.73-.71-3.38-2.13-4.81-5.13C1051.88,736.34,1056.66,744.2,1051.47,747.82Zm-23.78-27.63c2,2.84,3.86,5.61,1.72,7.55C1027.62,727.45,1024.57,722.37,1027.69,720.19Zm-11.32,55.32c-13.35,6.67-5-7.9.66-11.48C1013.09,769.53,1012.3,773.09,1016.37,775.51ZM821.91,474c1.83-2.17,3.9-7.16,6.88-3.57C826.55,471.13,823.71,476.53,821.91,474ZM998.57,790.81c1.5-4.95,1.49-8.5,5.45-6C1002.76,787.41,1003.26,794.85,998.57,790.81Zm-119.76,80.3c.51-3.76,5-2.77,7.12,1.58C883.07,875.56,881.46,869.71,878.81,871.11Zm-34.23,1.63c1.34,2.11,8-1,5.81,4.36C849.06,875,842.42,878.11,844.58,872.74Zm-8.4,16.83c5.41-7.68,1.26,7.42-1.83,3.43C832.94,889.34,832,888.6,836.18,889.57ZM830,903.19c.29-3.89,9.44,3.12,7.39-5.43C842.54,902.1,832.17,909,830,903.19Zm-55.64,30.7c5.55-.59.56-3.08,5.44-6,7.53,13.37,11.53,1.8,16.13-3.56C805.33,939.21,778.54,938.1,774.32,933.89ZM755.4,918.38c3.2-1,7.43-9.14,9.75-4C759.93,915.25,759.68,921.38,755.4,918.38Zm-4.07,34.93c.85-8.9,6.48-3.73,5.62-.78C755.41,950.3,754.22,957.68,751.33,953.31Zm-4.31-2c5.15-4.83-9.18-9.63,1.42-9.92C749,944.88,753.5,955.66,747,951.33Zm-8.8-9.16c1.54,4.23,4,2.14,5.52,6.37C739.49,952.71,737.58,945.16,738.22,942.17Zm-62.76,34c.56,4,2.88,3.35,2,5.56C667.69,980.53,671.16,978,675.46,976.19Zm-9.57,9.11c-4.35,11.67-5.27-.94-7.86-2.81,3.54-.41,2.09-6.77,5.16-4C659.07,983.56,661.05,984.66,665.89,985.3Zm-23.13-5.23c-4.17,4.57,8.75,7.36.64,8.35C644.81,986.94,634.76,978.69,642.76,980.07Zm3.13,29.39c-8.41-1.51.25-8.69,1.42-9.92C649.93,1003.55,647.07,1006.31,645.89,1009.46ZM635,989.58c5.71-1.12,1.84,9.27,7.12,1.61C647.15,1006.38,631.78,998.22,635,989.58Zm-1.25,15.08c1.29,3.8,4.33-4.59,5.61-.78C643.62,1015.25,637.1,1010.31,633.72,1004.66Zm-2.53-1.6c-7.55,8.74-9.14-14.54-4.09-16.29C629.33,993.21,621.8,1000.75,631.19,1003.06Zm-26.34,4.29c2.91-6.83,5.25-7.5,6.95-3.56C607.88,1005.91,606.56,1007.85,604.85,1007.35Zm-158.5-207c-1.46-2.81-2.24-10.63,2.17-8.72C446.63,794.29,448.25,797.75,446.35,800.38Zm-24.09,27.25c-3.84-2.7,4.29-7.73,5.44-5.92C425.26,823.54,426,826.09,422.26,827.63Zm98.15,230.19c-2-2.54-5.41-3.46-2.7-6.76C520.08,1051.51,523,1055.69,520.41,1057.82ZM402.59,881.5c-3.45-2.61,1.14-8.45,3.65-6.33C404.61,877.18,405.26,879.72,402.59,881.5Zm-16.64-12c6.09-1.91,1.94-2.79-1.49-2.39,7-5.8,7.33-11.72,11.53-3.51C390.12,862,391.3,874.81,386,869.51Zm122.77,183.93c4.81-3.34,11.65,9,.73,3.93C507.48,1060.45,509.35,1054.46,508.72,1053.44Zm-67.31-78.12c3.5,3.83,3.55-8.22,6.64-1.56C447.26,977.11,440,982.23,441.41,975.32Zm-53.72-86c-3.7-4,2.05-8.36,4.12-3.15Zm8.43,30.6c-4-6,6.25-8.8,4.81-14.25,1.23,2.14,2.56,3.53,4,4C400.53,912.76,396.09,915.85,396.12,920Zm-19.62-48.5c1.95,5.57,2.08,3.9,0,0C368.76,880.82,375.17,874.51,376.5,871.45Zm32.84,73.23c-7-3.86,10.78-7.7,7,.36C412.59,937.57,412.09,945,409.34,944.68Zm-24.51-35.5a8.4,8.4,0,0,0,4.41-5.13c4,1.63,2.38,2.28,3.27,2.79C387.79,908.47,388.52,911.58,384.83,909.18Zm-6.71-10.74c9.53,1.26,2.37-7.83,7.39-.36C383.26,902.57,377.78,903.37,378.12,898.44Zm-9.84-14.91c-3.86-2.95,7.78-1.77,7.53-1C370.68,888.51,371.28,884.34,368.28,883.53Zm-8.93-7.8c4.68-.75,1.23-8.42,5.44-5.92C366.21,879.47,365.18,878.89,359.35,875.73Zm66.22,101.1c-2.5,2.45-4.22-.46-6.08-2.41C423.57,970.85,424.54,972.67,425.57,976.83Zm-36.45-39.41c-.31-3.87,11.08-2.43,9,.4C391.41,935.49,395,942.7,389.12,937.42Zm-14-24.32c2.47,2,5.81-2.15,8.14.84C380.44,917.9,373.67,917.18,375.08,913.1Zm39.25,65.26c1.64,1.36,3.41,1.85,5.06,3.2C416.23,986.14,411.21,981.62,414.33,978.36Zm-37.5-49.77c-.11-12.45,2.86,5.3,7.38,4C383.33,942.31,377.06,930.67,376.83,928.59Zm-16.71-19.92c-6.36-14.5-6.88-7.81-12.81-13.16,2.26-1.19,1.05-3.17,1.62-4.75,13.7,11.9,5.83,12.06,14.84,11.58C364.21,908.24,360.28,905.84,360.12,908.67Zm14.4,40.13c-19.8,4.38,1.65-12.12,7.52-7.49C376.65,945.27,376.16,944,374.52,948.8Zm-25.93-36.62c5.78-4,10.59-1.34,15.25,2.45C354.65,916.2,356,913.91,348.59,912.18Zm27.43,39c3.71-.27,7.78-3.09,10.66,2.43C383.59,953.56,375.63,954.25,376,951.2Zm-36.84-56.52c.82-2,5.54-8.16,6.47-6.72C345.44,890.06,342.83,896.75,339.18,894.68Zm31.55,35.86c2.86,3.37.67,6.39,4.48,7.17C367.83,943,369,934.94,370.73,930.54Zm19.51,55.65c4.08-.63,4.22-5.25,8.72-3.13C394.89,990,393.12,987.76,390.24,986.19Zm10.28,11.55c2.06,1.12,8.91,1.21,7.57,4.8C396.09,1000.33,390,1012,400.52,997.74Zm-37.93-68c2.69,12.36-15.52-1.68-11.14-5.6C349.56,920.69,362.52,937.7,362.59,929.7Zm43.32,81.57c-5.65-7.77,1.25-5.08,3.39-4.36C408,1010.05,407,1010.56,405.91,1011.27Zm-23.47-15.59c4.11-4.8-1-14.6,5.46-5.94C385.41,992.05,386.78,999.7,382.44,995.68ZM338.13,918c6.48-5.21,2.43,10.75-1,10C324.16,921,327.69,928.74,338.13,918Zm52.18,80.5c-1.63,5,2,9.7.05,12.3C385.85,1002.25,382,1006.37,390.31,998.49ZM340.38,930.8c.88,2.37,3.45,1.88,2.24,3.59C334.64,940.77,333.66,942.16,340.38,930.8Zm16.26,84.6c-5.31-10.84,3.81-3.43,2.47-10.71,2.87,3.44,7.37-4.43,10.5-2.73C365.66,1007.27,358.09,1012.27,356.64,1015.4Zm-36.06-74.76c-6.26-9.9,4.6-9.88,7.24-5.54C324.76,949,323.46,934.2,320.58,940.64Zm3.17,9.93c-6.37-7.42,7-5.91,4.13-3.15C326.51,947.23,325.63,950.19,323.75,950.57Zm-9.07-7.17c1.27,3.82,3.55.82,5.05,3.19C308.42,960.68,312.5,951.26,314.68,943.4Zm12.84,25.45c-7.35-12,.08-4.16,3.11-2.38Zm-41.84-35c0,6.74,8.9,8.15,4.63,12.34.37-7.34-10.41-2.44-9.58-10.32-1.78-2.52,12-8.31,17.11-9.56C295.07,929.89,291.12,934,285.68,933.82Zm50.75,68.82c2.49-2.41,4.73-3,6.38.4C340.31,1005.45,338.09,1006,336.43,1002.64ZM318.1,983.13c-4.29,4.65-7.36-5.63-3.45-8C317.69,978.26,315.07,980.06,318.1,983.13Zm7.63,17.1c2.42,4.51,5.52,4.29,8.06,7.95C330.76,1011.65,324.7,1003.66,325.73,1000.23Zm-24.45-16.56A5.87,5.87,0,0,0,297.9,981c-7.56-11.72,20.07-23.61-1.12-4.45C305.43,976.58,304,981.94,301.28,983.67Zm1.06.57c6.57,6.13-7,2.85-7.3,2.57C298.84,984.11,300.72,983.87,302.34,984.24Zm30.22,46.23c-8.11-3.34,2.26-5,2.94-2.4C333.75,1033.7,332.46,1033.59,332.56,1030.47Zm-7.41,2.1c6.23,11.55-3.82,15.93-2,1.65C303.21,1039.1,317.63,1032.3,325.15,1032.57Zm-22.12-14c-7.42,2.95-2.59-8.5,1.54-5.34C299.94,1015.8,302.39,1016.17,303,1018.6Zm-18.65-5.14c6.91-20.57,18.49,8.41,7.44,6.56C293.14,1024.7,290.85,1010.11,284.38,1013.46Zm19.25,15c-10.75,3.14-8.54-.06-5.67-6.21C301.26,1026,304,1025.34,303.63,1028.43Zm-49.71,45.26c-4.4-4.85,6.56-9.28,2.85-16.45,8.39-.51,5.44,7.59,6.09,9.45C257.61,1067.21,256.67,1073.82,253.92,1073.69Z"/><g class="cls-6"><use transform="translate(-112.74 -292.61) scale(0.36)" xlink:href="#image"/><g id="TopStroke"><path class="cls-4" d="M763.58-62.85a193.55,193.55,0,0,1,60-102.14L-70.74,488.56l226,313.68L1049,149a193.7,193.7,0,0,1-138.53,20.49C805.77,145.93,740,41.89,763.58-62.85Z"/></g></g><path class="cls-5" d="M706.21,12.53c9.09,8.55-9.92,20.42-23.45,11.24C685.22,25,686,28,688.93,28.72c-15.61-.71.51-6.48-15.66,11.92,3.9-10.16-12.76-6-2.92-.17,12.81,10.86-21.36-15.08-17.35-5,5.2.39,8.53,10.88-6,6,4.77,10.94-.86-6.87-14,.55,3,2.73,1.76,3.21,5.65,5.51-3.2-1.63,0,2.43-3.57,1.3,5.22,12.54-6.36-2.28-6.44-6.93-1.62,12.46-7.19,1.63-42.42,26.93-2.44-1.76-1.41-.09-3.37-1.39-14.75,6.14-28.42,14.62-41.79,23.07-38,24-74.06,50.7-110,77.43q-28,20.87-55.93,42c-30.33,22.87-59.55,47.61-90.22,70.72-25.45,19.17-50.93,38.37-74.59,59.71-5.93,5.36-12.48,10.63-17.67,16.74-4.49,5.28-4,7.81-9.74,6.7-2.19-.43-1-4.05-6.5-3.22-3,.45-6.2,3.78-8.49,5.55-5.12,4-14.72,9.14-18,15.13-1.89,3.49-.28,6.6-3.24,9.63s-7.58,1-11.31,3.61c-3.07,2.11-3,5.72-5.49,8.28-3.75,3.84-14,7.23-15.72,12.41-1.11,3.38,1.75,9.57,2,13.3.3,4.77.12,10-2.31,14-.79,1.29-9.89,9.84-11.5,7.06,5.6,9.64,1.86,15.74-4.82,23.43-5.4,6.24-11,12.23-16.07,18.77-7,9-9.41,17.81-14.79,27.29-2.15,3.81-5.58,7-8.07,10.75-2.84,4.24-4.55,9-7.29,13.27-3.08,4.88-8.08,9.08-10.14,14.53-4.76,12.57,3,52.32,21.6,39.76,4.43-3,6.89-6.82,9.45-11.19,1-1.71,2.33-6.94,4.26-7.71,3.85-1.52,1.49,1.08,4.26,2.87,1.89,1.21,1.56,1.84,3.53.47,2.23,5.24.82,5.05-1.15,9.21-2.35,5-3.56,9.58-5.31,14.85-3,9.11.62,14.84,4.91,22.76,2.16,4,3.29,9,6.41,12.33,2.65,2.86,5.23,2.8,8.09,4.9,11.4,8.39-5.72,29.89-4.68,42.3.8,9.51-2.21,22.51,3.48,30.51,1.71,2.42,19.78,19.81,20.49,19.37-.28.18-4-9.29-2.85-5.45-2.17-2.22-1.22-1.65-2-3.33,1.66-.54,7,7.93,5.77,4.15,11.06,10.08-4.34-34.15,12.68,2-.5-12.19-3.15-17.82,6-1.42-2-2.7-2.11-3.53-.58-2.2-1-.56-7.07-15.77-3.5-10.85,6.07,10-5.11-9.21,2.26,1.84-4-7.23.16-.51-3.64-7.45,3.49,3.77,8.12,16.54-.56-4.85,3.89,4.68-.21,2.79,7.61,14.49,1.89,3.32.41.2,2.68,4.22-2.5-4.84,1.33-1.28-1.18-3.35,3.75,7.07.08-3.64,6.4,9.69-1.51-5.16,3.88-1.59,9.77,4.32,8.31-11.28,12.58-30,17.15-3.08,4.72,9.31,6.34,1.86,8.15-15.07,9.45,3.48,19.14-38.51,11.68-17.7-17.54,24.4,0-39.08,6.48-4.13,17.78-7.24.78-23.71,34.29-19.26-14.78-9.38-3.09-2.75,7.49-21.88-1-5.42,6.86-15.18,4.07-.8,7.44-4.48,31.31-13.23,32.15-35.15,3.32,3.54,33.07-15.32,38.89-47.35,4.42,14.74,4.26-13.15,9.76-2.08,10.49,15.14-8.33-19.16,10.63,3.85-3.94-1.89,12.92-8.42,1.44-12.52-1.74-5.51-.28-5.54,9.09,5.72-4.72-12.65-2.93-6,1.2-6.95-9-8.83,12.71-7.17,16.56-17.17,15.14-3.46.83-15.88,20.55-9.67-3-3.14-1.29-6.29,3.06-2.66-3.23-15.11,4.58,2.39,15.69.07-23.3-7.95,3.76-1.14-11.7-11.41,4.28,1.33,11,7.12,2.27-5.89,15.69,13.15,20.61,1.61,33.72-16.6,3.41,2.78,2.52.09,4.9,1.57-4.32.29,2.61-18.86,30-16.83-10,3.38,30.08-28.12,9.55-15.26-3.14-2.67-2.53-1.83-5.79-4,15.25-.11,10.69-22.23,24.61,2.46-6.9-1.94,15.1-19.55,18.65-13.16,2.82-3.17-.19-6.71,7.13-3.13,14.18-16.4-5.85-12.44,9.6-22.8,8.2,24.34,2.29,5,15,6.71-6.86-18.15-4.29-6.63,5.28-13,9-4.3-16.94,12.83,5,16-6.49-11-3-5.58,5.81.16,1.92-21.33.26-20.45,4.29-8.14,4.49,2.83,5.61-3.68,3.72-7.87,17.77,17.67-3.25-11.45,4.64-3.39,5.8,3.57-8.22-10.2-6.25-.23-7.38-13.41,10.64-7.53,4-18.36-4.7-1.62,2.1-9.12-1.44-2.83,9,15.09,15.28,24.94,8.15,6,4.45,4.42,14-20,11.46-12.17,7.58,4.72-.72-19.34,19.71-3.8,4.68-14.46,24.3-20.33,32.16-29.73,15.45,1,12.29,7.8,8.18-7.07-4.42-4.86,33.15,15.49,13.2,2.28-7.84-16.58,6.86.36,12.64-14.75-7.52-20.86-1.78-3.07,8.59,1.18,1.43-5.05,5-5.64-.4-7.35-14.44,1.25,7.21-11.27,8.2-12.32,13.48,10.07,31.89-23.74,35-12.93,3.46-12,6-22.77,10.87-7.83,9.74-2.23,20.33-1.18,19.11-9.2,5.12,3.85,18.32,0,11.44-16.66,10,5.19,9,3.34,22.34-9.54-15.84,17.57-16.94-18.86-5,1.19.75-17.39,7.28-13.91,24.16-16.64-2.7-7.29,4.07-21,1.86-6,10.1-2.84,29.77-16.51,18.19-14.49-9.43-5.27-17.77,11.34-34.65,8.24,4.9,5.36-11.34,3.89-27.22,16.46-5.72,9.66-.75,11.81-18.36.21-5.15-.69,3.43,13.46,1.52,14.5-12.87-17.61-11.7,8.42-28.81-6.75,4.52,21.72,2.09,7.3-19,6.08,9.73,20.12-7.88,0-11.17,7.94,9,2,4.15,1.56-6.62.83-.68.92,3,3-6.3,3.43,8.92,2.4-22.68,12.73-13.13,1.43-.75-1.87-2.77,3.83-6.35-2.32,21.37-7.94-10.7-9.08,15.1-24-4.47,8,.12,19.7,11.63,6.27,7.62,17.33,15.43-24.35,24.22-10.71,0-9.22-10,3.65,28.31-2.48-4.66,1.63,11.88-25.4,18.94-12.52-9.57-6.88-.52-7.21,54.16-19.07-6.89-13.78-16-12.56-14.95-21.94.21-1.15,20.56,2,21.55-.47-6.62-7.8-12.76-16.39-.58-9.66,21.23-10.24-25.15-7.88,2.37-11.61-4.58-11-6,.6,19.2-5.37-.19.75-11.49-15.67-2.3-8-1.85-7.6,11.72,10.62,14.37-10.82-3.58,3.75-2.65,3.84-14-5.74,13,17.55-32.25-8.92-23.57,10.18-2.9.38-4.26-6-12.86-3.66,6,5.73-4.54-.74-.17,4.77-16.13-7.05,11.74-.51.38-11.89-12.68,11.44-2.4,19.53-19.08,16,6.88,6.77-6.49,15.05-7.94-9.48-7.45,2.53,69.19-24.52,5.9-29-1.57,7.16-3.56,4.91-12.51,2.86,19.14,5.7-6.28,9.46-26.7,20.5,19,13.33-19.16,1.06-10.31,8.94-11.78-1.28,9.94,11.53-17.06,6.28-20,18.83-25,25.93-46.88,30.27-2.87-2.09-5.72,10.55-6.26,6.56-5.57.52-5.72-8.48-10.37-6.11,8.57,4.12-.39,13.66-4.22,16.61-2.64,2-6,4.26-9.6,4.25-2.68,0-3.48-1.18-5.77-1.77.68.17-6.85-3.1-5.23-.94-2.63-3.52-6.86-1.6-10-3.63-6.63-4.3-.29-5.53,3.48-7.7-2.24-2.83-.56-4.68,2.43-1.72-2.67-3.91-.6-11.63,6.73-6.68-7.16-13.61,10.53,10.57,2.56-9.56,8.3,15,3.8-16.8,14.78,4.89,8.1,1.08-10.23-5.26,7.56-4.52-17.69-8.93,6.39-8.34,12.1-23-1.51.51,6.23-14.77,19-11.74-3-7.06,2.84-2.27,7.88-9.18-2.28-.73,0-4.93,3.31.17-3.33-3.67,4.19-3.22-2-7.88,2.49-7,19.43,7.13,16.59-20.44,10.47,16.7,9.92-10.89-12.11,5.27-15.26-9.68,21.43-22.55,24.81-28.4C714.58,78,702,72.88,711.63,85c-9.94-1.4-17.76-2.37-43.08,10.53,3.53,3.57-3.45,5-5.2-2.67,4.91,5.45-.92-8,2.08-2,4.47-5.65,1.84-2.64,8-15.43,5.74,2.65,1.35-9.17,12.62-8.25-4.34-12.37,14.54,5.63,9-2.43-8.05-3.35,10.31-23.86,15.32-23,9.53-3-11.63-18.66,6.85-7.33-6.77-.28,9.57-11.78-1.38-11.27C716.23,15.55,715.89,25.71,706.21,12.53ZM601.11,62.87c1.71,2.85-1.46,1.16-2.68,1.25C597.28,61.79,599,62.19,601.11,62.87ZM97.34,636.57c.23,2.4,1.88,5.22-.63,2.57C95.65,637.06,95.58,634.5,97.34,636.57Zm38.72,76.08c-.17,2,.08,2.74,1.52,7.45-2-3-1.33-1.22-.58.84a81.49,81.49,0,0,1-4.22-7,67,67,0,0,0,4.43,8.36c-1.34-1.52-5-8.13-6.53-11.85,2,5,.18-8,3.53,1.78C133.89,710.45,134.71,709.91,136.06,712.65Zm174.42-123c-1-2.72,2.09-.47,1.95-2.14C313.57,590.42,312.51,590.62,310.48,589.66Zm64.58-58.28c2.1,1.94,3.43.3,5.16,3.41C377.35,532.35,377.21,535.81,375.06,531.38Zm63.77-39.82c-.52-.1,0,0-.68.81C436.61,491.93,433.36,489.49,438.83,491.56ZM799,245.21c1.09-1.2,2.11-2.47,5.29-1.71C803,244.26,801.92,247.82,799,245.21ZM738.56,230c-2.31-2.62,3.15-6.18,5.88-1.84C740.24,226.45,743,231.9,738.56,230ZM832.22,154c.79,1.06,0,0,2.43,3.19C832,156.24,830.13,156.93,832.22,154ZM634.4,171.39a11.15,11.15,0,0,1,5.58-3.08C640.12,171.53,637.92,172.2,634.4,171.39Zm44.72-36.29c1-.29,2-2.72,4.22-.57C682.72,135.2,682,137.88,679.12,135.1Zm25.93-16.65c-.89-.74-4.4-5.15-1.11-3.35C705.91,116.08,706.82,119.41,705.05,118.45Zm4.23-90.68c3.11.28,1.84.08,0,0C707.72,27.23,712.59,22.28,709.28,27.77ZM665.62,45.12c.35-.7-1.13-2.91,1.61-1.65C669.57,47,666,45.2,665.62,45.12ZM619,55.46c-2.27-2.1-1-3.24,1.94-1.8C622.69,56.37,620.63,55.75,619,55.46Zm-6.25,4.61c-.81-1.92,1.84-2.49,4.71,0C615.1,59.4,616.69,62.23,612.73,60.07Zm167.68,63.77c-1.82,1.17-1.33,4.24-4.26,4.49C774.3,124.32,777.51,122.66,780.41,123.84ZM661.89,86.61c.81-.54-.51-3,2.06-2C665.13,86.7,664.8,89.38,661.89,86.61Zm129.56,46.25c2.16,1.16.78-2.48,3.72.64C794,133.62,794.42,136.45,791.45,132.86Zm.33,3.08c-2.57-1.34-7.91.26-4.9-4C788.83,132.87,789.32,132,791.78,135.94Zm-12-2.24c.38-1-1.16-3.63,2.14-2.25C784.2,134.69,782.67,134.77,779.75,133.7Zm-88-23.26c0,1.66,1.1,3.93-3.74-2.19C687.74,106.84,686.88,104,691.77,110.44Zm83.1,31.79-1.56-2.94C774.5,139.85,778.47,141.11,774.87,142.23ZM825.41,159c4.63,3.1.55-1.2,3-.84C832.5,161.23,827.51,163.37,825.41,159ZM688.23,116c-3.93-.92.08,5.76-6.25,1.55,5.89,8.8-10.52-3.54,3.26-8.52C688.76,112.78,685.69,106.56,688.23,116ZM595.75,71.39c-2.84-2.79-1-3,0-3C598.08,70.61,597.61,72.12,595.75,71.39Zm105.56,47.39c-1.09-.43,0,0-3.25-1.25C697.66,115.57,697.12,114.46,701.31,118.78Zm111,43.79c-1.79-1.87,4.14-5.45,6.66,1.94C817.16,163.74,816.57,164.3,812.26,162.57Zm-47.69-15.42c-1.19-2.25-3-5,.19-3.57C764.3,144.43,767.5,148.38,764.57,147.15Zm31.9,10.21c3.07,5-.11,2.41,0,0C800.58,157.59,801.68,170.15,796.47,157.36ZM665.41,119.83c22.56-20.6,8.21,20.37,7.7,1.59C666.32,112.61,672.32,135.34,665.41,119.83Zm99.43,30.45h0C772.28,156.82,759.48,150.13,764.84,150.28ZM580.66,76.93c-3.34-4.21,3.57-.58,2.24-.63C581.79,76.13,583.34,78.72,580.66,76.93Zm209,89.79c.66-.81.65-.39,0,0C787.7,164.73,789.33,162.4,789.66,166.72Zm-21.88-2.55c-.65-4.26,0-5.57,0,0C770.09,164.48,755.49,157.63,767.78,164.17Zm22.64,4.05c1.36,2,3.35,3.32,5.2,4.84-3.19-.81-14-4.26-3.55-4.3ZM755.29,161c4.68,3.37,1.7-1.35,4.3-1C764.4,165.33,759.25,165.68,755.29,161Zm-3,.76c-2.65-5.55-5.87-6.43,0,0C750.33,163.18,749,166.18,752.27,161.78Zm-21.88-7.4c-1.47-3.14-.36-4,3.56-2.34C734.76,154.59,733.05,154.92,730.39,154.38Zm57.21,17.83c.34,2.42-4.58.36-4.05,3C782.68,174,782.24,169.67,787.6,172.21ZM666.24,130.65c-1.06-2.73-.45-1.63.37-4.5C668.75,127.65,671.15,127.84,666.24,130.65Zm111.49,42.57c2,.44,1.41-1.39,3.88-.56C783.22,175.09,780.19,175.74,777.73,173.22ZM566.89,81.11c-.32-2.48,3.29-.72,3.54-2.6C573.57,82.62,569.21,81.62,566.89,81.11Zm232.76,101.4c2-.43,6.3,12.63-3.53,1.34C793,203.41,785.51,170.77,799.65,182.51Zm-40.46-12c-2.65-3-3.89-4.86-.87-4.68C756.66,167.24,761.24,169.35,759.19,170.47Zm30,9.15c-1.42-.2-1.3.92-3.44.1C784.25,177.2,787.21,176.63,789.18,179.62Zm-126.07-46.3c-1.19,4.33-2.34-4.72-5.86,4.89C657.56,132.28,645.62,121.44,663.11,133.32Zm-3.51-2.2c-1-2.32.26-2.42,3.37-.78C663.57,132.26,660.94,131.08,659.6,131.12Zm118.72,50.46c-.58-3.17-2.18-4.53,0,0C778.69,182.08,771.86,180.07,778.32,181.58Zm6.18,2.76c-1-2-1.45-3,0,0C783.61,184.07,777.2,180.87,784.5,184.34Zm-65.3-19.43c.72-1.53.23-1.25,0,0C714,164.91,717.82,158.12,719.2,164.91Zm55.92,18.74c-2-2.39-5.62,6.94-4.5-.41C772.22,183.24,771.72,179.75,775.12,183.65Zm-18.74-6c.55,2,3,4.64-3.43,0C755.78,179.15,753.58,176.16,756.38,177.64Zm26.47,10.58c5.11,2.63,4.16,7.07-1.89-2.57C780,186.48,788,186.07,782.85,188.22ZM652,137.42c2.24.48-1.48-3,1.46-2.21C655.2,138,654.84,140.7,652,137.42Zm96.15,44.83c.52-1.17.32-3,2.06-3.05C752.14,182.61,749.55,181.92,748.12,182.25Zm-18.93-4c1.67-.1,1.42-2,4.43-.85C735.1,180.2,731,180.13,729.19,178.27ZM647,141.38c-.65,1.26-2.72,1.05-4.3,1.31C641.3,139.5,643.28,136.69,647,141.38Zm141.11,69.43c-11.26-4.49-12.19-22.38,7.83-3.26C787,203.25,802.55,213.72,788.07,210.81Zm-27.4-11c6.63,5.13-18.25,3.37-5.7-.1C746.94,181.75,749.44,193.21,760.67,199.79ZM641.45,145.6c-1.84-2.65-1.69-3.87.44-3.31C642.28,144,641.73,144.62,641.45,145.6ZM800.29,211c-.74-1.49-3-1.47-3.55-3.16C797.17,206,802.43,210.7,800.29,211Zm-52-13.8c1.25-.37-4.66-3.92-.46-6.05C749.31,192.66,750.66,194.23,748.33,197.21ZM638.49,145.86h0C638.3,145.49,633,143.58,638.49,145.86Zm61.22,33.07c-4-1.49-3.35-5.13-1.06-4.27C700.2,177.27,698.17,176.31,699.71,178.93Zm81.64,29.56c-.45.54-4-.79-4.85-3C778.52,206.09,780.5,206.75,781.35,208.49Zm-141-58.09c-.75-.74-.69-1.34-1.72.3C637.2,149.84,640.46,145.72,640.31,150.4Zm11,10.5c2.68,1.43-.35-3.28,2.39-1.77C654.85,161.59,653.9,164,651.27,160.9Zm174.36,71.79c-2.1-2.75-2.18,0-.18,1.29C822.75,236.66,820,221.92,825.63,232.69ZM682.87,190.47c-1-2.14.11-1.95,2.25-.72C686.14,191.9,685,191.71,682.87,190.47ZM614.8,155.4c-2.73-1-4.37-5.25-1.18-3.05C614.36,154.39,615.5,154.58,614.8,155.4ZM676,190.7c1.19,3.25-1.92,4.18-5.28,1C676,194.93,670.21,186.49,676,190.7Zm116,55.62c1.51.31,3.71-1.26,5.67,1.25C798,249,793.63,248.58,792,246.32Zm-55.24-10.73c-1.23-2.64-1.81-5.68,0,0C733.2,236,725,229,736.72,235.59ZM625.91,181.4c.55,1.43-7.35-6.3-2.41-4C625.5,178,627.52,178.13,625.91,181.4Zm140.57,78.89c-.78-2.94-1.24-5.55.6-5.66C767.91,257.5,769.67,261.52,766.48,260.29Zm-72.64-35.62c-1-2.15.16-2,2.29-.71C697.12,226.11,696,225.93,693.84,224.67Zm27.94,16.57c-.73-2.53-.8-4.3,2.26-2.72C724.7,241,722.9,240.72,721.78,241.24Zm-16.25-5.6c-2.64-2.43-4.48,7.25-4.93-1.19C703.6,233.79,702.46,227.54,705.53,235.64ZM645.9,208.77c-1-3.38.49-4,2.11-4.4C649.19,207.94,647.47,208.29,645.9,208.77Zm118.37,62.62c-.49-2.11,0,0,1.41-3.22C764.12,267.92,776.1,278.74,764.27,271.39Zm2.78-6.43c1.57,4.41,4.24-4.25,5.57,4.91C771.61,273.85,771.13,275.44,767.05,265Zm-7.93,1.42c7.61-1.45,2.81,7.14-3.4-2.94C757,261.19,758.19,260,759.12,266.38ZM710,246.15c1.78.7.49-2,3.1-.35C714.28,248.1,711.26,248.13,710,246.15Zm3-2.29c.51,1.93,3.28,2.14,3.49,4.3C714.44,248,711.24,243.7,713,243.86ZM697.07,237c-2.06-1.74-3.41-2.39,0,0C699.58,243.66,687.55,238.54,697.07,237Zm-116.2-58.76c-1.64-3.11.38-2.73-2-5.36C582,174.81,582.14,173.27,580.87,178.26Zm178.6,92.83c.56-.85,1.88-.87,4-.06C765.69,274.62,760.16,272.26,759.47,271.09ZM604,194.88q-.47-3.23,2.92-2C607.2,195,606.21,195.67,604,194.88Zm141.6,79.89c6.56-4.22-7.37-8.73,3.61-4.72C749.89,272.72,750.32,275.07,745.55,274.77ZM630.12,211.24c-.73.28-.83,1-3.72,1.64C625.76,210.75,625.6,205.11,630.12,211.24Zm66.53,38.82c-.68.18-1.73-.07-3.63-1.27C691.24,245.55,695.75,247.71,696.65,250.06Zm44.46,27.06c-.34-1.07,0,0-1.62-2.75C738.62,273.83,746.93,276.25,741.11,277.12Zm-50.58-24.58c.58-.75-2-5.09.69-3.43C692.1,251.49,691.91,252.69,690.53,252.54Zm-16.25-4.87c-.91-2.15.58,1-.88-4.23C675,244.66,680.07,247.76,674.28,247.67Zm6.57-2.76c-3.21-1.77.09,3.8-4.06,1C674.6,241.85,678.16,241.92,680.85,244.91Zm50.24,27.85c-2.08-3.57,1-1.38,3.14-.36C735.35,274.91,732.2,272.72,731.09,272.76Zm-46.21-20.07c-1.46-2.88.71-1.68,1-2.61C688.29,252.81,687.49,254.28,684.88,252.69Zm1.18,6.92c-2.53-7.76-5.42-11.56,3.35.52C692.24,266.28,674.64,250.93,686.06,259.61Zm-9.55-3.85c-.39-3.52,1.56-4.42,4-4.77C685.24,256.75,679.9,256.45,676.51,255.76Zm71.86,34.67c.35-2,2.94-1.59,4.46-2.35C752.68,290.34,752,292,748.37,290.43Zm-23.72-11.94c-1.31-1.63-3.91-4.68-1.36-3.89C723.91,275.3,726.42,279.23,724.65,278.49Zm14,12.26c-1.77-4-10.3-2.26-2.44-7.05C737,285.08,736.85,284.82,738.65,290.75ZM668.22,250c1.62,4.84-5,.59-7.46-3.43C663.6,248.42,664.49,249.72,668.22,250Zm6.56,7.91c1.11.93-4.11-6.18,1.23-1.83C675.32,256,675.2,256.48,674.78,257.94Zm35.34,21.34h0C710.26,280,705.09,275.22,710.12,279.28Zm16.48,10.47a15,15,0,0,1-5.53-6.69C724.18,284.3,727.32,288.76,726.6,289.75Zm-44.8-26.13c1.69,3.28-2.51.86-4.1-1C676.5,259,679.09,262.58,681.8,263.62Zm41,29.91c-2.31-1-2.52.17-3.19-5.48C722.74,291.44,727.42,287.77,722.75,293.53Zm-12.45-.79c5.24,3,3.41-4.67,8-.88C716.58,292.68,715.78,299.34,710.3,292.74Zm1.54-1.09c-.15-1.4.22-3.08,0,0C713.63,291.82,705.93,287,711.84,291.65Zm-7.37,8.12c-2.58-1.87,0,0-3.33-.54C701.27,297.92,701.57,294.78,704.47,299.77Zm-56.81-23.92c.6-.88.73-5.35,4.26-.07C649,273.73,649.81,278.46,647.66,275.85Zm3.34,2.49c-1-.71.87-3.4,4.09,2.67C655.6,283,656.85,283.64,651,278.34Zm3.93,5.9c-2.69-.83-5.34-5.85-2.89-4.7C653.23,280.94,654.72,282.16,654.93,284.24Zm34.6,21.15c-1.34-.79-1.93-1.37-3.81-.23C685.32,303.57,688.35,297.38,689.53,305.39ZM659.1,289,658,286C658.38,286.32,663.21,288.93,659.1,289Zm-14.79-9c1.39,3.9-2.83-1.25-4.52-.72C639.74,277.79,642.22,277.8,644.31,280.07Zm-5.77-.83c-3-4-1.12-3.07,0,0C638.87,280.3,631.32,273.41,638.54,279.24Zm13.05,9.22c-5.1,2.88-13-11.44-4.32-1.84C648.06,284.53,647.9,280.73,651.59,288.46Zm30.67,19.09c-.87-2.52-2.25-5.62.38-4.11C682.65,305,684.74,308.89,682.26,307.55Zm-60.41-36c-.38-1,0,0-1.12-3.06C622.19,269.57,624.91,270.77,621.85,271.59Zm5.38,19.24c2.14-2.53,13.8,8.2,11.38-9.73,2.81,8-.73,29.18-8.81,11.8C633.22,297,626.48,298.1,627.23,290.83Zm4.31,6.61c1.18,1.31,0,0,1,4.1C631.57,299.31,625.57,300.18,631.54,297.44Zm49.67,8.91c-.54,1.65-2.13,2.1-4.22,2C677.11,306.3,677.91,303.23,681.21,306.35ZM653,292.29c1.08.34-.21-2,2.51.19C657.83,295.85,653.89,294.15,653,292.29Zm-6.14,1.35c-.88-2.07.16-4.2,2.68-.9C647.93,292.26,648.4,294.13,646.83,293.64Zm28.49,16.77c-1.55-1.78-1.5-4,.91-2.54C677.46,310.49,676.41,310.47,675.32,310.41Zm-35.47-13c.16-.87,0-4.3,2.66-.86C641.22,296.41,642.07,298.68,639.85,297.45Zm20.69,15.46c-1-2.13-.94-3.13,1.15-1.76C662.64,313.28,662.62,314.28,660.54,312.91Zm-36.07-15.39c-.83.18,0,0-1.83,1.27C622.48,297.45,619.05,291,624.47,297.52Zm-9.57-2c-2.76-4.47-3.43-7.22,0,0C612.87,295.16,605.56,286.61,614.9,295.54Zm12.24,8.75c.5-1-4,.25-2-3.92C627.4,300.8,629.57,300.82,627.14,304.29Zm-19-6.86c.82-.66,2.84,1.22,4.1,2.91-1-3.92,2.93-4.66,7.85-.7-4.36-1.31-5.07,1.86-4.36,5a15.83,15.83,0,0,0-4.71-4.41c1.67,1.67,2.46,6.1-1.35,1C611.82,308.57,606.19,304.62,608.09,297.43Zm62.57,39.08c-1.91.29.65,9.56-3.92-1.13C670.79,339.93,662.74,328.45,670.66,336.51Zm-52.55-28.79c-.07-1.8-5,3.59-4.09-2.9C614.41,305.25,614.72,305.24,618.11,307.72Zm36,24.86c-1.43-1.55-3.13-5.24-1.08-4C653.12,329.6,655.71,333.47,654.1,332.58Zm11.85,11c.73-3.18-5.77-5.37-2.41-7.11C667.25,337.59,668.57,341.08,666,343.54ZM607.48,305.6c-2.94-2.5-.42,2.92-3.16-.66C604.34,303.85,604.86,301.56,607.48,305.6Zm24.32,18.48c.1-1.49,1.32-1.72,1.58-3C634.79,322.75,634.51,326.94,631.8,324.08Zm27.74,16.24c1.06-1,.9-.45,0,0C656.33,338.12,660.86,336.37,659.54,340.32Zm-61.4-26c2.64-2.77-.75-18.73,10.34-1.71C600.88,307.43,602.83,315.05,598.14,314.36Zm56,27.79c0-2.28,0,0,3.93-2.72C658.39,341.76,659.42,341.27,654.1,342.15ZM576.36,298c1.18-.54,2.48-3.36,5.62-.2C579.66,297.11,580.25,302.05,576.36,298Zm13.1,10c-3.48.3-10.74-1.74-.83-2.33C587.48,305.25,588.7,307.09,589.46,308Zm64,36.49c.8-.9-.09-2.8,0,0C655.08,343.94,647.75,342.38,653.44,344.5Zm-5.6,1c-1.45-2.83-.56-3.07,1-2.62C648.7,344,649.79,346.41,647.84,345.51Zm-51.73-29.64c2,2.59-2.78,2.43-7.31-4.41C592.62,314.34,589.73,312.75,596.11,315.87Zm61.27,36.42c-2.81-3.8-5-5.13,0,0C647,350.6,657.63,352.68,657.38,352.29ZM645,347.52c-.66-3.29,2.06-1.44,0,0C642.69,346.09,643.44,341.39,645,347.52ZM586.38,321c1.31-.76-.42-8.81,4.1-3C586.88,316.51,590.25,322.83,586.38,321Zm-16.06-4.11c-.37-1.68-.35-2.91,1-2.63C572.88,316,572.78,318.32,570.32,316.89Zm5.48,6.76c2.73.2,2.61-7.13,8-.84C579.49,320.92,579.67,326.64,575.8,323.65Zm-21.93-8.76c-1.18-2.65-.1-2.64,1-2.6C556.54,314.2,555.72,315.65,553.87,314.89Zm9.56,7.79c-1.77-2.61-2.08-4.3,0,0C558.39,320.62,550.9,321.92,563.43,322.68Zm1.55,2.76c-3.76-1.09.93,9.23-4.13-1C561.31,323.87,561.76,323.2,565,325.44Zm-9.82,4.78c-1.31-3-.65-3.66.79-3.39C557.81,329.06,558.59,332.77,555.16,330.22Zm56.34,33c-1.9-3.84.6-2.61,1.61-3.1C612.78,361.37,613.62,364,611.5,363.19Zm2.62,2c-1.06-2.23,1.33-3,3.17-.32C615.28,363.89,617.54,367.82,614.12,365.2Zm-9.71-3.75c1.8-1.11-5.61-1-2.32-5.13C602.57,357.53,603.35,358.76,604.41,361.45Zm11.17,12.43c2.06-.75-11.45-7.55-5.91-12.29C610.24,364.58,617.38,372.41,615.58,373.88Zm-11.79-6.19c-.88-2.18-.79-3.24,1.36-1.91C606,368,605.92,369,603.79,367.69Zm-48,37.3c-.28-2.08.63-2.65,2.75-1.69C559.87,406.69,557.8,405.8,555.8,405Zm-2,6.82c3.28,7.53-4.88,10.28-4.53-3.13C549.06,405.2,566,411.88,553.82,411.81Zm3.23,7.28c-.37-3.1,1.25-3.64,2.67-4.45C559.78,417.33,560.05,420.3,557.05,419.09Zm-3,5.53c-2.42-2.38-2.62-.74-2.24-6C555.43,421.64,554.14,422.85,554.05,424.62Zm-10.56-3.75c-2.48-2-.2,2.18-3.36-.72C539.83,418.29,542.33,417.82,543.49,420.87Zm12.85,12.49c.45.59-5.31-3.77-1.39-2.85C555.41,429.6,555.22,428.7,556.34,433.36ZM534.61,428c-.48-2.26-.5-4.28,0,0C532.88,432.32,524.1,426.46,534.61,428Zm-9,1.64c-.79-.76-1-1.27,0,0C526.94,431.26,519,429.94,525.62,429.66Zm-3.36,11c-5.25-.65-3.65,2.83-7.74-8.26A82,82,0,0,1,522.26,440.69Zm-8,.09c-3.38-2,0,0-7-7.79C511.28,435.45,508.23,433,514.22,440.78Zm-2.06,3.89c-1.16.74,6-5.88,2.76,1.15C514.59,445.68,514.31,443.78,512.16,444.67Zm-4-1.33c2.28-1,4.14-.53,0,0C503.79,441.7,506.7,430.89,508.14,443.34Zm3.35,8.05c-1.53-2.39-2.19-6,0,0C508.77,451.34,504.33,444.56,511.49,451.39Zm-10.34-6.8c.29,2.09-1.86.88-2.66,1.5C497,442.41,498.27,440.85,501.15,444.59Zm-2,8.35c.11,1.28-4.61,1.6-.73-.49C497.69,451.81,495.49,449.22,499.12,452.94Zm-9.3-1.1c1.86.85.94-2,3.55-.18C493.92,453.76,492,455,489.82,451.84Zm-.42-1.56c-1.2.72,0,1.86-3.67-2.46C487.6,448.5,487,446.86,489.4,450.28ZM483,453c-1-3.88.68-4.31,3.18-3.59C486.86,453,483.39,451,483,453Zm4.43,7.43c-2.8-4.73-.78-5,1-5.05C489.34,458.84,489.78,461.49,487.4,460.41Zm-12.52-4.72c-1.06-.92,0,0-3.13-2.75C471.18,451.4,475.3,447.16,474.88,455.69Zm-7.58,17.73c-1.05-1.79.24-1.05,0,0C466.41,471.45,460.82,469.31,467.3,473.42ZM367.06,544.84c-2.9,1.33-7.54-8.4-1.46-5.5C365.48,540.39,364.91,540.68,367.06,544.84Zm-10.86,1.48c3.4,2.49.87-3.73,4.65,1.95C359.13,547.1,358.5,549.87,356.2,546.32ZM121.53,423.94c-2.38-3.84-1.36-1.09-5.75-7.6C118.06,418.72,120.49,420.82,121.53,423.94Zm-4.85-7.81c3.36,4.65,5.27,6.91,0,0C116.83,415.25,113.06,409.48,116.68,416.13ZM336.91,566c.67,2.19,0,0-1.63,1.81C334.68,568.12,331.51,558.3,336.91,566ZM120.46,425c-1.83-2.07-3.19-4.26-4.82-6.4C117.45,419.61,116.16,418,120.46,425ZM330.54,566.87c2.07.55-1.46-3.46.91-2.31C332.77,565.86,333.48,571.24,330.54,566.87ZM119.68,424.38c.87,1.56,0,0-.61.13C118.41,423.25,116.33,420.11,119.68,424.38Zm144.75,213c3,1.25,1.76-3.88,4.33-3.25C269.79,638.37,266.52,640.89,264.43,637.37Zm-6.21,5c2.37-.88,3.5-3.69,7-2.71C264.79,643.43,262.6,644.76,258.22,642.32Zm-1.11,4.9c.05-1.2,0,0,.17-3.58C258.88,644.8,262.32,646.57,257.11,647.22ZM98.82,570.69c.06,1.62-7-12.72,2.76-11C101.47,561.93,101.48,563.86,98.82,570.69Zm-7.62,2.68c-1.13-1.31,0,0-2.47-4.17C91,568.06,95.78,560.6,91.2,573.37ZM196.46,686.86c-1-2.9.08-6.57,2-5.4C198.88,685.67,197.37,685.65,196.46,686.86ZM85.6,582.8c2.59.81-2.7-16,3.2-10.44C88.31,574.07,88.93,580,85.6,582.8Zm98.68,132.87c1,7.5-10.41-10.43-3.1-8.83C180.27,707.56,179.72,708.58,184.28,715.67ZM63.6,587.52c.39-2.27.22-4.17,0,0C64.23,588.48,57.61,580.82,63.6,587.52Zm38.91,54.07c-2-2.34,3.82,11.75-1.27,1.94C100.88,643.81,97.07,632.24,102.51,641.59ZM143.68,707c1.5,2,.1-2.46,2,.33C146.64,710.61,144.57,709.85,143.68,707Zm-6.35,1.46c0-2.52.17-4.91,2.31-2.9C138.67,706.13,139.51,710.62,137.33,708.48Zm-4.53-.6c-.24-1.49-.48-3,1.47-.29C134.53,709.43,134.1,709.5,132.8,707.88ZM140.08,722c-1.54-2.18-1.71-2.14-.64.12C137.89,721.53,138.77,716.58,140.08,722ZM99.44,706.72c-1.74-2.32-2-4.36-1.32-4.54C99.38,703.9,101.36,708.29,99.44,706.72Z"/><g class="cls-7"><use transform="translate(-112.74 -292.61) scale(0.36)" xlink:href="#image"/><g id="MidStroke"><path class="cls-4" d="M111.71,1096.37a193.61,193.61,0,0,1-54.33,105.26L1153.81,284,911.09-16.94l-1096,917.3a193.7,193.7,0,0,1,137.2-28C58.2,890.2,129.56,990.5,111.71,1096.37Z"/></g></g><path class="cls-2" d="M585.78,388.38a8.05,8.05,0,0,0-1.78-.52l1.39-.44A2.82,2.82,0,0,1,585.78,388.38ZM146,671c3,.28,2.54-13.22,8.44-7.69-2-8.93,9.8-12,13.63-9.4-1.29-4.83,9.8-14.59,18.84-17.48-3,1.59,10.72,2.9,7.57-1.59-2.2-12.53,18.91-3.39,19.35-8.13-12.14-10.12,12.3-14.31,11.82-8.2.48-16.57,3.91-1.2,10.15-14.51,4.07,9.36,8.58-7.58,3.21.75-4.35-2.43,4.12-8.43,6.16-2.79,7-4.46.66-12,5.93-5.35-1.82-10.45,44.58-21.87,44-35.41,20.92-7.56,52.09-32.21,66.51-34.54,2.8-11,35.71-17.61,27.26-19.09,8.87-6.49,18.41-14.15,25.5-16.92-6.13,2.71-.65,8.66,1.94,2.16,1.47-14.7,14.73-13.19,23.25-19.29,6.51,13.06.71-1.25,10.93-1.28,9.31.36-6.74-2.51,9-8.4,13.1-13.45,28.39-11.53,21.44-16.39a31.31,31.31,0,0,0,19-8.36c-.45-1.2-.31-1.79,1.08-1a71.91,71.91,0,0,0,5-5.25,3.69,3.69,0,0,0,1.36,2.18c.73-.63,1.8-.74,3.21.06,0,.07.05.14.07.21a27,27,0,0,1,3.53-.75c.11-2.14.26-4.69.47-7.7,7,4.09,10.63,8.17,8.56,4.46-1.73-.85-4.09-1.84-2.7-4.42l-.13-.2.23,0c1-1.76,3.77-4.22,9.51-7.83.6,1.54-.5,2.7.29,4.28,1.4-8.32,18.21-4.2,7.88-10,.72-8.53,6.84-1,6.45,1.44,1.77-.9,3.84-4.2,5-.54,8.92-8.15,6.53-.88,10.2-2.2a8,8,0,0,1,1.5-3.4,2.45,2.45,0,0,0,1.84,1.17,86.14,86.14,0,0,0,6.94-7c-11.31-1.56,0-3.24,2.93-3.56,3.45-9.73,7.36-11.75,10.82-11.16-2.25.69-4.2,1.49-1.74,4.76,2-1.22,3.88-2.48,3.52-4.24,5.32,2.19,9,8.91,7.18-1.8a23.83,23.83,0,0,0,6.89.24c4.37-4.44,9-9.22,9-10.46l.62,0c.86-2.49,1.53-4.15,5.81-2.47-.44.77-.84,1.48-1.21,2.15,1-.11,2-.26,2.9-.43a5.61,5.61,0,0,0-.77-2.37c5.69-3.71,15.55-8.06,21.32-12.35a3.08,3.08,0,0,0-.09-2.37c1.05.21,1.1-.76,2.72.11,1.63-1.7,2.37-3.36,1.68-4.95.8.08,2.32-.48,4.32-1.49,7.68-11.72,12.65-18.67,21.83-14.8.85-.66,1.69-1.33,2.51-2-1.34-2.65,0-2.39,1.93-1.59l.77-.66c-7.78-6.23,12.49-2.47-8.54-8.39,5.59-1.49,10.41,2.17,13.33,4.14,1-.89,1.84-1.76,2.65-2.59-.13-.68-.29-1.46-.51-2.37a8.23,8.23,0,0,0,1.75,1.06,30.5,30.5,0,0,0,2.07-2.48,10.72,10.72,0,0,0,.49,2.29c.5-.78.13-2.24-1.34-3.65a38.92,38.92,0,0,0,6.22,1.18c1.23-1.94,2.3-3.89,2.75-3.84,1.56-1.33,2.91-2.4,4.1-3.26,1-1.8,2.84-3.54,7-4.73,3.59-10.05,25.07-9.63,16-17.82,4.06-1.11,5.95,5.28,1-6.9,9.45,10.55,10.89,10.44,9.07,5.12-10.23-3,2-9.28,1.78-11.71,18.11,20.17-.57-11.64,9.94,2.51,5.65,10.58,4.94-16.84,9.58-2.58A64.59,64.59,0,0,1,754,266.35c.76-.21,2.24.39,1.48-1.54-.27-.11-.53-.2-.76-.27,9.68-23.22,30.43-36.94,33.23-34.18.4-21.59,23.76-31.54,31-36.35-2.48,14.29,5.08,4.25,4-1,10.06-19.4,21.72-13.53,7-21.93,33.12,2.5,16-12.75,33.42-20.86,7,34,23.13-29.39,6.31-4.42-6.95,20.88,1.8-21,11.17-18.06,1.46-16.74,2.91-24.16,7.74-15.26,5,26.22,8.88,7.56,16.85-4,5.92,5.49,11.29,8.7,9.71,3.71,6.24,12.28,2.94,3.15,6.11,8.5-.3.31-1.17-.5.38.67l-.38-.67c.17-.18.13-.79-.84-2.56a17.09,17.09,0,0,0,1.59,2.33c.25.31.46.63.69,1,.46.66,1.5,1.34,1.34,2.25-.07.38-.39.57-.4.89,0,1.25,1.23,2.64,1,3.85a3.52,3.52,0,0,1-1.27-1.49c1.51,4.55,1.76,5.3,1.63,7.24,1.38,2.62,2.19,2,1.84.29.2.54,1.63,5,2.23,2.89a16.36,16.36,0,0,1,.4-2,1.94,1.94,0,0,0,.25-1.63,6.62,6.62,0,0,1-.52-1.85c0-.2.19-.41.2-.66a8.25,8.25,0,0,0-.54-2.09,3.43,3.43,0,0,1-.05-1.62c.55,0,.08-.69.11-1.07,0,.61.89.35.92-.32a4.3,4.3,0,0,0-.34-1.31c-.42-1.3-.94-2.57-1.47-3.83s-1.09-2.5-1.72-3.71c-.26-.5-.65-1.63-1.2-1.91.53.42.86.6,1,.55,7.37,12.25,4.94,6.8,4.25-4.41,17.48,34.65,1.44-8,12.54,1.31-1.31-3.65,4.14,4.39,5.77,3.76-.79-1.6.15-1.1-2-3.16,1.12,3.46-2.14-4.21-2.81-5.12,20.47,17.15,25.82,23.48,28.67,27-6.83-6.92-5.14-5.27-8-8.18,22.9,25.51-20.64,78,4.42,70.52,48.08,5.41,14.49,53.62,8.32,57.94-.1-.56-.2-1.16-.32-1.86-1,2.09-.7,2.57.32,1.86,2,11.35,1.34-3.81,6.71,8.56,44.34-73.85,51.73,15.5,17.84,53.81-29.18,55.48-50.26,54.28-38.55,73.19-1.63-2.64-10.44,6.27-11.19,7.58-2.32,4.07-2.39,9.21-2,13.88.3,3.66,3.24,9.58,2.21,13a6.88,6.88,0,0,1-.94,1.85c-.21-.43-.66-1.25-1.47-2.64-3.4-4.39-5.33-6.5,0,0a8.11,8.11,0,0,0,1.37,2.76c-3.08,4.24-11.07,7.65-14.21,11.11-2.41,2.65-2.27,6.2-5.25,8.45-3.63,2.73-8.12.91-11.09,4.18s-1.2,6.11-3,9.64c-3.09,6.08-12.45,11.7-17.42,15.89-2.23,1.87-5.32,5.32-8.27,5.93-5.36,1.12-4.29-2.5-6.47-2.8-5.66-.78-5.15,1.68-9.47,7.13-5,6.29-11.35,11.85-17.09,17.44C836,526.68,811.29,547,786.58,567.25c-29.78,24.44-58.1,50.4-87.55,74.57q-27.12,22.26-54.32,44.41c-16.53,13.4-33.1,26.8-49.89,39.92-.15.32-.33.48-.54.43l-5,3.86c-1.25,3.55-.51,3.93-7.51,8.23.19-1.73.51-2.15.25-2.63l-3.15,2.41a3.46,3.46,0,0,0,.87,3.14,5.44,5.44,0,0,0-2.85-1.63q-10.29,7.81-20.73,15.44c-.74,1.83-2.81,4.06-10.62,7.64l-1.46,1c3,1.87-1.54,11-6.3,6.92,2.24-2.94,2.6-4,2-3.9l-2,1.42-2.95,2c-2.83,2.42-5,4.7-.86,1.51,4.38,8.83-4.13,9.59-10,5.84q-3,2-6.11,4c-4.58,10.9-17.27,17.12-17.12,12-22-1,7.91,7-5.91,7.12.31,9.58-7.81,4.49-10.75,6,3.42.63,6.35,4.45,6.24,3.11,4.17,2.63-23,14.22-36.1,28.17.09-1.39-.6-3-1.88-4.67-2,11.81-22.76,18.31-26.5,24.43a7.88,7.88,0,0,0,4.15.09c-14.62,13.73-29.93,18.52-46.08,33.48.33-14.12-18,23.75-29.7,10.14-6.6,4.53-2.67,6.76-9,4.71,11.91,13-4.83.51-17.51,12.07,10.61.6-5.57,12-8.28,13.45-3.77,2.06-7.76,2.86-11.18,5.08-6.06,3.94-7.88,7-15.84,6.42-7.77-.55-14.16,2.53-19.65,7.82-3,2.89-6.65,5.13-9.78,7.91-3.74,3.34-5.76,7.61-8.82,10.82-2.61-1.59-5.11-3.35-7.71-4.95,2,5.21-.05,11.51-4.42,15.44-6.73,6.07-12.86-.79-20.63-.45.55,1.82,1.08,3.83,2.48,5.27-.14-.38-.9-1-1.17-1.27a11.41,11.41,0,0,1,3.39-.94c-2.19,2.41-5.13,4.67-6.8,7.3-.66-2.51-1.74-4.7-4-5.82-1.59.1-3.65-1-5.22-2.65a15.64,15.64,0,0,0-1.22,1.92c-2.26-1.82-2.84-2.1-4.14-.22-2.06-1.84-4.14-2-4.55,1.35a20.5,20.5,0,0,0-2.31-.7c-3.22,14.19-21.75-.14-14.22-8.19-2.07-.53-3.88.68-6.47.37-5.44-.65-5.28-4.27-9.69-.61-3.39,2.81-4.1,8.3-9.73,5.58-.58.89-7.23,7.49-7.73,6.66-12.94-21.59-24.57-32.55-28-56.21-4,3.59-5.25,7.88-9.11,11.59-3.39-20.13-31.91-36.19-13.61-46.48-.65-3.63,4.57-1.15,6-1-12.63-36.13-15.74,22-24-35.62-30.44,4.61-33.58-17.8-6.12-34-4.61-2.7.23-8.54,4.57-8.88-7-1.64-8.38-9.54-16.52-5.23,4.68,1.44-6.16,5.64-1.37,15.52-15.79,5.5-6.33-9.18-6.73-16.08,2,1.62,4.85-3.53,6.74-1.49-3.38-16.7,1.54.51,7.15-1.22,10.57.06-.41-18.62,4.6-24.18-10.26,1.21-1.43,7.87-12,3.56-10.75-29.75,9.61-65,8.71-33.79,6.17,1,6.42-1.42,3.84-4.06,7.45,2,.06-8.44,5.87-6.92-4.24-3.6-3.11-5-.5-8.53-40.62,24,55.31-58,60-66.17C147.72,683.5,137.36,662.89,146,671ZM950.72,424.39c-4.45-6.16-3.39-3.52-5.81-7.16C946,420.24,948.42,422.17,950.72,424.39Zm-4-7.7c3.38,4,1.27,1,.6-.16C946.72,416.69,945.83,415.21,946.72,416.69Zm-.78-.53c4.38,6.59,3.07,5.1,4.88,6C949.17,420.18,947.78,418.1,945.94,416.16ZM877.42,133.87c4.63,6.71,4.11,7.75,3.22,8.5C887.88,143.54,876.28,126.54,877.42,133.87Zm-70.56,74.9c.11-3.54.07-2.35.11-3.54C801.84,206.17,805.26,207.71,806.86,208.77Zm-6.92,6.56c-2.13-3.34-5.3-.68-4.2,3.43C798.28,219.25,797,214.26,799.94,215.33Zm6-5.22c-4.37-2.15-6.5-.72-6.91,3.06C802.59,213.94,803.65,211.11,806,210.11ZM625.81,372.76l.48-.25c0-.13,0-.26,0-.4A3.66,3.66,0,0,1,625.81,372.76ZM277.63,877.29c-4.37-7.16-7.13,1.52-6,1.14C276.05,880.64,275.41,876.55,277.63,877.29Zm-97.87,79.77c5-1.64,9.57-1.87,10.12-5.28C183.08,948.68,179.44,953.22,179.76,957.06ZM269.34,883c-2.44-4.42-5.93-1.26-9-1.25C263,884.92,266.21,883.65,269.34,883ZM500,785.36a4.91,4.91,0,0,0-.87-1.28,5.33,5.33,0,0,0-1-.5l-.65.22c-.12.4.06,1.08-.53,1s.11.43.9.77A7.5,7.5,0,0,0,500,785.36Zm-16.92,6.38a4.14,4.14,0,0,0,1.39.14,2,2,0,0,1-.15-1.53C483,790,482.45,790.59,483.05,791.74ZM311.8,895.38c1.6,2.61,3.21,5,5.33,3.77C317.42,897.54,314.39,893.38,311.8,895.38ZM691.62,325a4,4,0,0,1,1.33.78,12.2,12.2,0,0,0-.75-1.28C692,324.61,691.81,324.77,691.62,325ZM87.84,819.68c8.15-20,2.21-4.77-5-5.49C86.06,817.26,84,821,87.84,819.68Zm13-10.16c2.79,4.42-5,1.36-4.11,5.71C100.29,817,107.17,811.5,100.85,809.52Zm1.36,7.93c.19,4.49,3,12.58,3.84,19.53C114.09,838.06,105.67,823.54,102.21,817.45Zm-6.33,56.16c-3.3-1.32-1.46,7-5.76,3.19C95.14,883.71,95.93,877.15,95.88,873.61ZM121.61,925c-3.25-.57-5.91,4.23-6.36,7A8.86,8.86,0,0,0,121.61,925Zm10.3-.87c3,2.74-1.06,3.73-.16,6C141.49,932.32,138.82,923.63,131.91,924.09Zm9.72,12.67c-1.57-2.43-3.63-1.94-5-5.51.65,6.18-8.22,1.68-6.31,7C134.34,936.43,138.1,935.88,141.63,936.76Zm117.26-86.7c-4.16-3.33,5.83-7.73-4.61-2.78C255.6,849.76,257.12,850.92,258.89,850.06Zm-80.8,96.34c-.54-3.45,1.91-4.75-1.53-6.33C172.05,941.38,174.72,948.13,178.09,946.4ZM168.6,963c-4.42-1.11-7.93,8.62-11.58,7.59,6.3-7.51-.24-6.33-3.18-3.15C147.77,979.38,168.9,966.29,168.6,963Zm9.53-6.31c-2.59,3.39-8.27-.69-8.29,4C172.44,960.86,179.73,962,178.13,956.67Zm8.71,19.21c4.33-1.84,3-5,4.62-7.48-8.44-4.12-5.93-6-15.09-6.15-11.3,19.69,10.56-7.61.36,13,6.94-9.16,6.54,2.31,6,4.85,3.48-3.71,6.19-3.07,8.2,1.92C211.32,976.67,188.18,976.79,186.84,975.88Zm20.69,8.28c-1.55-2.63-3.32-3.89-5.31-3.82,2,2.2-4.7,2.34-.8,5C203.87,982.42,205.62,983.79,207.53,984.16Zm90-76c-2,.81-3.41-3.41-5.76-.5C292.71,911.64,298.32,911.61,297.53,908.18Zm12.24,2c9.37-5.12-3.1-5.15-4.39-4.42C308,909.38,308.84,909.71,309.77,910.17Zm-35.84,40.9c-8.13-10.36-3.28,3.07-3.95,4.18C273.31,952.84,273.56,952,273.93,951.07Zm3.51-12.77c2.54,2.29-4.87,2.26-2.33,4.55C286.93,946.73,284.27,944.31,277.44,938.3Zm38.58-19c8.89-1.69-2.15-10.8-5.19-6.64.48,8.06,9-7.85,3.82,10.55C316.67,922.21,315.54,920.54,316,919.25Zm2.78,4c-1.95,3.39-7.29,1.32-6.46,4.44C315.51,928.82,318.51,926.86,318.8,923.28Zm4.84-4.83c-6.41,2.52-1.74,9,2.56,5.68A8.67,8.67,0,0,0,323.64,918.45Zm34.14-15.84c9-9.37-4.63-6.73-9-3C354.12,898,357.1,898.39,357.78,902.61Zm17-10.53c-4.26-.23-7-1.33-6.23,2.81C370.92,894.62,376.51,897.31,374.76,892.08Zm96.79-77.76c-3.05-.71-3.6,3.46-.85,6.56C473.74,819.32,469.7,816.15,471.55,814.32Zm39.73-28.43c-1.83,1.09-3.69,2.14-5.55,3.16C507.65,790,510.46,788.12,511.28,785.89ZM998.84,253.14c-.34,2.26-.13,4.12,0,0C1004.87,259.39,998.2,252.23,998.84,253.14Zm-34.39,18.52c-2.48,6.86-2.44,8.76-2.5,11C971.64,283.78,964.36,270.06,964.45,271.66Zm10,.9c-2.51-4-1.37-2.73-2.51-4C967.64,281.41,972.22,273.81,974.42,272.56Zm2.15-12.81c-2.44,3.11-1.86,8.13-2.28,9.7,5,4.39,1.81-6.64,2.28-9.7a6.78,6.78,0,0,1,.68-.74C976.86,258.91,976.66,259.21,976.57,259.75ZM964.64,206.8c1.77,1.94,1.65-.59.57-2.57C962.68,201.77,964.37,204.44,964.64,206.8Zm-5.19-4.66c5.54,8.9,1.55-2.27,1.21-2C955.46,190.8,961.41,204.34,959.45,202.14Zm3.15-59.82c.63-.21.37-2.2-1.39-4.39C959.29,136.49,961.33,140.7,962.6,142.32ZM926.87,139c2,2.6,1.71,1.09,1.44-.37C927,137.13,926.58,137.22,926.87,139Zm-5.25,2.27c2.14,1.86,2.26-.49,2.21-3C921.64,136.33,922.56,140.7,921.62,141.29Zm-6-1.4c1.92,2.64.46-1.63,2,.21C916.67,137.37,914.62,136.74,915.63,139.89Zm5.24-14.67c1.39,5.21,2.16.29.62-.15C922.59,127.23,922.42,127.28,920.87,125.22Zm-56.8,43.08c2,1,3-2.64,1.9-5.43C865.1,164.11,863.61,164.18,864.07,168.3ZM735.29,290.67c2.36,1-1.2-2.75.86-2.33C733.16,284.21,734,289.46,735.29,290.67Zm-3.84-3c-1.56,1.88-2.26-.24-1.56,1.88C735.36,296.82,732,287.35,731.45,287.69Zm-24.82,20.64c3.84,5.37,1.22-.61,4.62,1.65C708.92,306.62,708.35,309.38,706.63,308.33Zm-5.8,4.2c2.28-.73,2.41.74,1.16,2.48a3.8,3.8,0,0,1,.14,2.36c6,2.52,1.28-6.79-1.56-5.33C700.67,312.21,700.75,312.37,700.83,312.53Zm-13,10.13a6.16,6.16,0,0,0,.65.91l.24-.35A4.7,4.7,0,0,1,687.8,322.66Zm-67.71,52.21a34.91,34.91,0,0,0,3.9-1.32C621.92,373.6,619.64,371.9,620.09,374.87Zm-84.65,47.72c1.52-.48,2.91.17,4.32.62.35-.39.68-.38,1.14.29a4,4,0,0,0,1.9-.1C541.06,421.29,535.25,418.24,535.44,422.59Zm-19.26,9.64c1.19,4.52,1,3.64,1.42,2.72C521.49,435.64,515.72,431.68,516.18,432.23ZM70.55,772.36c.36-1.92,2.82-1.37,3.62-2.43C67.46,766.08,67.64,772.57,70.55,772.36ZM177,649.24c1.2-1.69,6.19-2.47,4.76-4.78C179.54,645.36,175.09,645.61,177,649.24ZM414.41,490.63c.53-.21,1.06-.4,1.56-.55A11.25,11.25,0,0,0,414.41,490.63ZM636.48,358.14a2.9,2.9,0,0,0,.92.36A.92.92,0,0,0,636.48,358.14Zm-29.25,18.23c.54,0,1.07,0,1.59,0C608.81,376,608.34,375.93,607.23,376.37ZM730.4,278.49l.61.68A.85.85,0,0,0,730.4,278.49ZM943.72,108.13l.1.08C943.77,108.15,943.74,108.11,943.72,108.13Zm7.59,319.15-.1.12C951.45,427.73,951.56,427.8,951.31,427.28ZM753.59,267c0-.43.14-.6.41-.67.24-.61.47-1.21.72-1.81C753.22,264.1,752.58,264.61,753.59,267Z"/></g></svg>
